<svg aria-hidden="true" style="position: absolute; width: 0; height: 0; overflow: hidden;" version="1.1" xmlns="http://www.w3.org/2000/svg" xmlns:xlink="http://www.w3.org/1999/xlink">
<defs>
<symbol id="icon-book" viewBox="0 0 26 32">
<path d="M20.521 0.593c-2.321-0.377-4.995-0.593-7.721-0.593s-5.4 0.216-8.008 0.631l0.288-0.038c-1.865 0.288-3.349 1.611-3.723 3.326-0.863 3.781-1.358 8.124-1.358 12.582 0 3.979 0.394 7.866 1.145 11.624l-0.063-0.376 0.625 3.209c0.192 0.99 1.5 1.387 2.289 0.691l7.52-6.601c0.344-0.295 0.794-0.474 1.286-0.474s0.943 0.179 1.289 0.476l-0.003-0.002 7.52 6.601c0.789 0.693 2.097 0.299 2.289-0.691l0.623-3.213c0.688-3.38 1.081-7.265 1.081-11.241 0-4.459-0.495-8.803-1.433-12.98l0.074 0.394c-0.373-1.715-1.856-3.038-3.721-3.328z"></path>
</symbol>
<symbol id="icon-star" viewBox="0 0 34 32">
<path d="M21.982 31.413c3.097 1.696 5.822-0.361 5.23-3.957l-1.065-6.459 4.507-4.571c2.507-2.546 1.472-5.879-1.998-6.405l-6.229-0.942-2.77-5.847c-1.554-3.275-4.923-3.31-6.48-0.030l-2.786 5.877-6.229 0.942c-3.463 0.526-4.505 3.856-1.998 6.402l4.51 4.574-1.063 6.459c-0.594 3.591 2.126 5.655 5.23 3.954l5.57-3.045 5.573 3.049z"></path>
</symbol>
<symbol id="icon-arrow-right" viewBox="0 0 32 32">
<path d="M19.414 27.414l10-10c0.781-0.781 0.781-2.047 0-2.828l-10-10c-0.781-0.781-2.047-0.781-2.828 0s-0.781 2.047 0 2.828l6.586 6.586h-19.172c-1.105 0-2 0.895-2 2s0.895 2 2 2h19.172l-6.586 6.586c-0.39 0.39-0.586 0.902-0.586 1.414s0.195 1.024 0.586 1.414c0.781 0.781 2.047 0.781 2.828 0z"></path>
</symbol>
<symbol id="icon-heart" viewBox="0 0 32 32">
<path d="M5.775 16.063l10.225 10.604 10.225-10.604c1.099-1.148 1.775-2.708 1.775-4.426 0-0.007 0-0.013-0-0.019v0.001c0-3.471-2.713-6.285-6.061-6.285-1.685 0.005-3.204 0.71-4.283 1.838l-0.002 0.002-1.653 1.717-1.653-1.717c-1.082-1.13-2.601-1.835-4.284-1.84h-0.001c-3.347 0-6.061 2.813-6.061 6.285 0 1.667 0.639 3.267 1.775 4.444z"></path>
</symbol>
</defs>
</svg>

