<svg aria-hidden="true" style="position: absolute; width: 0; height: 0; overflow: hidden;" version="1.1" xmlns="http://www.w3.org/2000/svg" xmlns:xlink="http://www.w3.org/1999/xlink">
<defs>
<symbol id="icon-Illustration" viewBox="0 0 29 32">
<path fill="none" stroke="#6c5fbc" style="stroke: var(--color1, #6c5fbc)" stroke-linejoin="round" stroke-linecap="round" stroke-miterlimit="1.5" stroke-width="1.3607" d="M15.122 4.255c-4.83 2.22-9.358 4.947-14.070 7.375"></path>
<path fill="none" stroke="#6c5fbc" style="stroke: var(--color1, #6c5fbc)" stroke-linejoin="round" stroke-linecap="round" stroke-miterlimit="1.5" stroke-width="1.3607" d="M27.99 11.656c-8.638 0.867-17.315 2.689-25.71 4.845"></path>
<path fill="none" stroke="#6c5fbc" style="stroke: var(--color1, #6c5fbc)" stroke-linejoin="round" stroke-linecap="round" stroke-miterlimit="1.5" stroke-width="1.3607" d="M22.072 25.58c-5.507-2.271-14.19-3.051-20.287-3.973"></path>
</symbol>
<symbol id="icon-vector" viewBox="0 0 9 32">
<path fill="#6c5fbc" style="fill: var(--color1, #6c5fbc)" d="M4.069 31.865c0.11 0.080 0.263 0.055 0.343-0.055s0.055-0.263-0.055-0.343l-0.289 0.398zM0.383 23.989v0zM6.488 18.311v0zM8.327 21.199v0zM5.782 22.809v0zM1.478 14.923v0zM7.501 9.901v0zM8.95 12.028v0zM2.443 4.9v0zM7.686 0.468l0.21 0.127c0.046-0.077 0.047-0.173 0.002-0.25s-0.129-0.124-0.218-0.122l0.006 0.246zM6.308 2.282c-0.070 0.116-0.032 0.267 0.084 0.337s0.267 0.032 0.337-0.084l-0.421-0.253zM5.302 0.28c-0.136 0.003-0.243 0.116-0.24 0.252s0.116 0.243 0.252 0.24l-0.012-0.491zM4.213 31.666c0.144-0.199 0.144-0.199 0.144-0.199s0 0-0 0-0-0-0-0-0.001-0.001-0.002-0.001-0.005-0.003-0.009-0.006-0.020-0.015-0.035-0.027c-0.031-0.024-0.078-0.060-0.137-0.108-0.119-0.095-0.289-0.238-0.491-0.422-0.405-0.369-0.938-0.906-1.449-1.576-1.025-1.345-1.939-3.197-1.608-5.299l-0.485-0.077c-0.362 2.292 0.639 4.279 1.702 5.674 0.533 0.7 1.088 1.258 1.509 1.642 0.211 0.192 0.389 0.341 0.514 0.442 0.063 0.051 0.113 0.090 0.147 0.116 0.017 0.013 0.031 0.023 0.040 0.030 0.005 0.003 0.008 0.006 0.011 0.008 0.001 0.001 0.002 0.002 0.003 0.002s0.001 0.001 0.001 0.001 0 0 0 0 0 0 0.144-0.198zM0.626 24.027c0.259-1.642 1.089-3.225 2.174-4.289 1.088-1.067 2.39-1.579 3.614-1.193l0.148-0.469c-1.463-0.461-2.946 0.174-4.106 1.311-1.162 1.14-2.040 2.819-2.316 4.563l0.485 0.077zM6.414 18.545c0.359 0.113 0.869 0.442 1.244 0.915 0.371 0.469 0.587 1.050 0.431 1.679l0.477 0.119c0.204-0.82-0.089-1.554-0.523-2.102-0.43-0.543-1.020-0.934-1.481-1.079l-0.148 0.469zM8.088 21.139c-0.148 0.595-0.512 0.937-0.945 1.14-0.443 0.208-0.955 0.27-1.369 0.284l0.017 0.491c0.439-0.015 1.030-0.080 1.562-0.33 0.542-0.255 1.023-0.704 1.213-1.466l-0.477-0.119zM5.774 22.563c-1.651 0.056-2.831-0.955-3.525-2.448-0.696-1.498-0.88-3.445-0.53-5.143l-0.481-0.099c-0.369 1.79-0.179 3.846 0.566 5.449 0.748 1.608 2.078 2.796 3.987 2.732l-0.017-0.491zM1.719 14.973c0.3-1.456 1.042-2.857 2.058-3.796 1.011-0.934 2.279-1.4 3.662-1.039l0.124-0.475c-1.58-0.413-3.015 0.132-4.12 1.153-1.101 1.017-1.888 2.514-2.206 4.058l0.481 0.099zM7.439 10.139c0.434 0.113 0.76 0.332 0.973 0.636s0.326 0.715 0.292 1.238l0.49 0.031c0.039-0.611-0.091-1.138-0.38-1.551s-0.723-0.691-1.251-0.829l-0.124 0.475zM8.704 12.012c-0.031 0.478-0.236 0.807-0.551 1.038-0.325 0.239-0.778 0.383-1.306 0.449l0.061 0.487c0.571-0.072 1.117-0.233 1.536-0.541 0.429-0.315 0.71-0.776 0.75-1.402l-0.49-0.031zM6.847 13.499c-1.768 0.222-3.132-1.059-3.907-2.89-0.773-1.826-0.903-4.088-0.271-5.615l-0.454-0.188c-0.695 1.678-0.538 4.080 0.272 5.995 0.809 1.911 2.326 3.448 4.42 3.186l-0.061-0.487zM2.67 4.994c0.491-1.186 1.746-2.259 2.922-3.050 0.582-0.391 1.132-0.705 1.537-0.921 0.202-0.108 0.368-0.191 0.483-0.248 0.057-0.028 0.102-0.049 0.132-0.064 0.015-0.007 0.026-0.012 0.034-0.016 0.004-0.002 0.006-0.003 0.008-0.004s0.002-0.001 0.002-0.001 0-0 0-0 0-0 0-0-0 0-0.102-0.223-0.102-0.223-0.102-0.223-0 0-0 0-0 0-0.001 0-0.002 0.001-0.003 0.001-0.006 0.003-0.010 0.004-0.021 0.010-0.037 0.017c-0.032 0.015-0.079 0.037-0.138 0.067-0.119 0.058-0.29 0.144-0.498 0.255-0.415 0.222-0.981 0.544-1.58 0.947-1.185 0.797-2.552 1.939-3.102 3.269l0.454 0.188zM7.476 0.341l-1.168 1.941 0.421 0.253 1.168-1.941-0.421-0.253zM7.68 0.222l-2.378 0.057 0.012 0.491 2.378-0.057-0.012-0.491z"></path>
</symbol>
<symbol id="icon-arrow-right" viewBox="0 0 30 32">
<path fill="none" stroke="#fff" style="stroke: var(--color2, #fff)" stroke-linejoin="round" stroke-linecap="round" stroke-miterlimit="4" stroke-width="2.4893" d="M6.238 16.257h17.426"></path>
<path fill="none" stroke="#fff" style="stroke: var(--color2, #fff)" stroke-linejoin="round" stroke-linecap="round" stroke-miterlimit="4" stroke-width="2.4893" d="M14.951 7.544l8.713 8.713-8.713 8.713"></path>
</symbol>
</defs>
</svg>
