<svg aria-hidden="true" style="position:absolute;width:0;height:0;overflow:hidden" xmlns="http://www.w3.org/2000/svg">
  <defs>
    <symbol id="icon-rate" viewBox="0 0 179 32">
      <path fill="#f59e0b" style="fill:var(--color1, #f59e0b)" d="m17.197 2.102 4.171 8.865 9.325 1.422c.241.038.442.215.517.457s.012.509-.162.687l-6.746 6.899 1.593 9.744c.042.251-.057.506-.254.656s-.459.17-.675.051l-8.341-4.599-8.341 4.601c-.216.119-.478.1-.675-.051s-.296-.404-.254-.656l1.593-9.745L2.2 13.534c-.175-.178-.237-.445-.162-.687s.275-.42.517-.457l9.325-1.422 4.173-8.865c.106-.229.328-.375.572-.375s.466.146.572.375zM53.74 2.102l4.172 8.865 9.325 1.422c.242.038.442.215.517.457s.012.509-.162.687l-6.746 6.899 1.593 9.744c.042.251-.057.506-.254.656s-.459.17-.675.051l-8.341-4.599-8.341 4.601c-.216.119-.477.1-.675-.051s-.296-.404-.253-.656l1.593-9.745-6.748-6.899c-.175-.178-.237-.445-.162-.687s.275-.42.517-.457l9.325-1.422 4.173-8.865c.106-.229.329-.375.572-.375s.466.146.572.375zM90.284 2.102l4.172 8.865 9.325 1.422c.242.038.442.215.517.457s.012.509-.162.687l-6.746 6.899 1.593 9.744c.042.251-.057.506-.254.656s-.459.17-.675.051l-8.341-4.599-8.341 4.601c-.216.119-.478.1-.675-.051s-.296-.404-.254-.656l1.593-9.745-6.748-6.899c-.174-.178-.237-.445-.162-.687s.275-.42.517-.457l9.325-1.422 4.173-8.865c.106-.229.329-.375.572-.375s.466.146.572.375zM126.828 2.102l4.171 8.865 9.325 1.422c.241.038.442.215.517.457s.012.509-.162.687l-6.746 6.899 1.593 9.744c.042.251-.057.506-.254.656s-.459.17-.675.051l-8.341-4.599-8.341 4.601c-.216.119-.478.1-.675-.051s-.296-.404-.254-.656l1.593-9.745-6.748-6.899c-.175-.178-.237-.445-.162-.687s.275-.42.517-.457l9.325-1.422 4.173-8.865c.106-.229.328-.375.572-.375s.466.146.572.375zM163.372 2.102l4.171 8.865 9.325 1.422c.241.038.442.215.517.457s.012.509-.162.687l-6.746 6.899 1.593 9.744c.042.251-.057.506-.254.656s-.459.17-.675.051l-8.341-4.599-8.341 4.601c-.216.119-.478.1-.675-.051s-.296-.404-.254-.656l1.593-9.745-6.748-6.899c-.174-.178-.237-.445-.162-.687s.275-.42.517-.457l9.325-1.422 4.173-8.865c.106-.229.328-.375.572-.375s.466.146.572.375z"/>
    </symbol>
    <symbol id="icon-tic" viewBox="0 0 43 32">
      <path fill="#dadada" style="fill:var(--color2, #dadada)" d="M26.656 31.703c-2.193-4.24-3.289-8.844-3.289-13.815 0-5.044 1.334-9.21 4.002-12.499S34.185.455 39.813.455v6.907c-1.974 0-3.417.439-4.331 1.316s-1.371 2.558-1.371 5.044v1.096h8.004v16.885h-15.46zm-22.695 0C1.768 27.464.672 22.859.672 17.888c0-5.044 1.334-9.21 4.002-12.499S11.49.455 17.118.455v6.907c-1.974 0-3.417.439-4.331 1.316s-1.37 2.558-1.37 5.043v1.097h8.004v16.885H3.961z"/>
    </symbol>
  </defs>
</svg>
