<svg xmlns="http://www.w3.org/2000/svg" aria-hidden="true" style="position:absolute;width:0;height:0;overflow:hidden">
  <defs>
    <symbol id="icon-arrow" viewBox="0 0 32 32">
      <path stroke-linecap="round" stroke-linejoin="round" stroke-miterlimit="1.5" stroke-width=".573" d="M15.851 25.708c-2.934-2.641-5.237-5.964-5.456-9.98-.198-3.625 1.728-6.364 5.584-4.749 1.825.765 3.566 2.871 3.252 4.9-.349 2.261-3.23 1.182-4.31.024-2.523-2.703-3.04-7.184-.519-10.005 2.986-3.342 6.093.494 6.063.503"/>
      <path stroke-linecap="round" stroke-linejoin="round" stroke-miterlimit="1.5" stroke-width=".573" d="M11.644 25.935c.357-.199.767-.221 1.174-.265 1.334-.143 2.846.138 4 .989-.927-1.251-1.734-3.163-1.18-4.61"/>
    </symbol>
    <symbol id="icon-ios-apple" viewBox="0 0 28 32">
      <path d="M26.742 24.143a16.782 16.782 0 0 1-1.685 2.996c-.886 1.249-1.612 2.114-2.171 2.594-.867.788-1.795 1.192-2.79 1.215-.714 0-1.575-.201-2.577-.608-1.006-.406-1.93-.606-2.775-.606-.886 0-1.837.201-2.853.606-1.018.408-1.838.62-2.465.641-.954.04-1.904-.375-2.853-1.247-.606-.522-1.363-1.418-2.271-2.686-.974-1.355-1.774-2.925-2.401-4.716-.672-1.934-1.008-3.807-1.008-5.621 0-2.077.454-3.869 1.363-5.37.715-1.206 1.665-2.157 2.855-2.855s2.475-1.054 3.86-1.077c.758 0 1.751.232 2.985.687 1.231.457 2.021.689 2.368.689.259 0 1.137-.271 2.626-.811 1.408-.501 2.596-.708 3.569-.627 2.637.21 4.619 1.238 5.936 3.09-2.359 1.413-3.525 3.392-3.502 5.931.021 1.978.747 3.623 2.173 4.93a7.156 7.156 0 0 0 2.171 1.408c-.174.499-.358.978-.553 1.437zM20.693.609c0 1.55-.573 2.997-1.714 4.337-1.378 1.593-3.044 2.513-4.851 2.368a4.782 4.782 0 0 1-.036-.587c0-1.488.655-3.081 1.819-4.383.581-.659 1.32-1.207 2.215-1.645.894-.431 1.739-.669 2.535-.71.023.207.033.414.033.62z"/>
    </symbol>
    <symbol id="icon-google" viewBox="0 0 32 32">
      <path d="M23.365 10.531c-.677-1.241-1.607-2.185-2.791-2.834s-2.566-.973-4.145-.973c-1.748 0-3.299.395-4.652 1.184s-2.411 1.917-3.172 3.383c-.761 1.466-1.142 3.158-1.142 5.075 0 1.974.381 3.694 1.142 5.16.789 1.466 1.875 2.594 3.257 3.384s2.989 1.184 4.821 1.184c2.256 0 4.102-.592 5.54-1.776 1.438-1.212 2.382-2.89 2.834-5.033h-10.15V14.76h15.987v5.16c-.395 2.058-1.241 3.961-2.538 5.71s-2.975 3.158-5.033 4.229c-2.03 1.043-4.314 1.565-6.852 1.565-2.848 0-5.428-.634-7.74-1.903a14.353 14.353 0 0 1-5.414-5.371c-1.297-2.284-1.946-4.878-1.946-7.782s.648-5.498 1.946-7.782c1.325-2.312 3.13-4.102 5.414-5.371 2.312-1.297 4.878-1.946 7.697-1.946 3.327 0 6.217.818 8.67 2.453 2.453 1.607 4.145 3.877 5.075 6.809h-6.809z"/>
    </symbol>
    <symbol id="icon-hide-eye" viewBox="0 0 36 32">
      <path d="m32.12 3-4.29 4.29c.493.315.961.645 1.404.985 1.463 1.123 2.672 2.376 3.525 3.606.83 1.196 1.42 2.509 1.42 3.729s-.59 2.533-1.42 3.729c-.854 1.23-2.062 2.483-3.525 3.606-2.921 2.242-6.983 4.06-11.514 4.06-2.841 0-5.498-.715-7.804-1.801L5.11 30.01a1.267 1.267 0 0 1-1.791-1.791L30.33 1.208a1.267 1.267 0 0 1 1.791 1.791zm-6.13 6.129L23 12.118a6.331 6.331 0 0 1-8.773 8.773l-2.392 2.392c1.799.733 3.793 1.189 5.883 1.189 3.86 0 7.395-1.558 9.973-3.537 1.286-.987 2.303-2.056 2.987-3.041.707-1.02.968-1.817.968-2.285s-.261-1.266-.968-2.285c-.684-.986-1.701-2.054-2.987-3.041a17.703 17.703 0 0 0-1.701-1.154zm-9.909 9.909a3.798 3.798 0 0 0 5.066-5.067l-5.066 5.066zm1.638-14.823c1.743 0 3.416.269 4.982.728a.41.41 0 0 1 .169.687l-1.392 1.392a.43.43 0 0 1-.4.113 14.994 14.994 0 0 0-3.359-.388c-3.86 0-7.395 1.558-9.973 3.537-1.286.987-2.303 2.056-2.987 3.041-.708 1.02-.968 1.817-.968 2.285s.261 1.266.968 2.285c.597.861 1.448 1.785 2.511 2.662a.432.432 0 0 1 .035.637l-1.197 1.197a.416.416 0 0 1-.561.027c-1.17-.981-2.146-2.038-2.869-3.079-.83-1.196-1.42-2.509-1.42-3.729s.59-2.533 1.42-3.729c.854-1.23 2.062-2.483 3.525-3.606 2.921-2.242 6.983-4.06 11.514-4.06z"/>
      <path d="M17.719 9.279c.2 0 .398.009.593.027.332.031.453.428.217.664l-2.047 2.047a3.81 3.81 0 0 0-2.356 2.356l-2.047 2.046c-.236.236-.633.116-.664-.217a6.331 6.331 0 0 1 6.304-6.924z"/>
    </symbol>
    <symbol id="icon-lock" viewBox="0 0 26 32">
      <path stroke-width="1.684" d="m17.444 14.423.8.05.09-.796.542-4.784a6.427 6.427 0 0 0 0-1.454l-.038-.339c-.323-2.85-2.604-5.085-5.478-5.417a6.322 6.322 0 0 0-1.455 0C9.03 2.015 6.75 4.25 6.427 7.1l-.038.339a6.427 6.427 0 0 0 0 1.454l.632 5.581.8-.05a76.512 76.512 0 0 1 9.625 0zm-12.139.188.869-.068-.631-5.566a7.22 7.22 0 0 1 0-1.623l.038-.339C5.943 3.818 8.511 1.269 11.8.89a7.209 7.209 0 0 1 1.661 0c3.288.379 5.856 2.928 6.219 6.125l.038.339a7.22 7.22 0 0 1 0 1.623l-.631 5.566 2.028.159c1.453.114 2.621 1.181 2.852 2.564a33.053 33.053 0 0 1 0 10.898c-.231 1.382-1.399 2.45-2.852 2.564l-2.526.198a76.249 76.249 0 0 1-11.919 0l-2.526-.198c-1.453-.114-2.621-1.181-2.852-2.564a33.053 33.053 0 0 1 0-10.898c.231-1.382 1.399-2.45 2.852-2.564l1.159-.091zm13.216.689a75.438 75.438 0 0 0-11.779 0l-2.526.198a2.284 2.284 0 0 0-2.084 1.892 32.322 32.322 0 0 0 0 10.651 2.286 2.286 0 0 0 2.084 1.892l2.526.198c3.92.307 7.859.307 11.779 0l2.526-.198a2.284 2.284 0 0 0 2.084-1.892 32.322 32.322 0 0 0 0-10.651 2.287 2.287 0 0 0-2.084-1.892l-2.526-.198zm-7.58 7.415c0-.891.741-1.641 1.69-1.641s1.69.75 1.69 1.641c0 .89-.741 1.641-1.69 1.641s-1.69-.75-1.69-1.641z"/>
    </symbol>
    <symbol id="icon-email" viewBox="0 0 41 32">
      <path d="M1.354 8.805c-.58 5.144-.554 11.076.253 16.2.446 2.835 2.869 5.008 5.859 5.256l3.125.259c6.516.541 13.069.541 19.584 0l3.125-.259c2.99-.248 5.412-2.421 5.859-5.256.807-5.123.832-11.055.253-16.199a56.81 56.81 0 0 0-.253-1.786c-.446-2.835-2.868-5.008-5.859-5.256l-3.125-.259a118.358 118.358 0 0 0-19.584 0l-3.125.259c-2.99.248-5.412 2.421-5.859 5.256a56.81 56.81 0 0 0-.253 1.786zm9.506-4.348a115.15 115.15 0 0 1 19.047 0l3.125.259c1.561.13 2.825 1.264 3.058 2.744l.071.461-11.507 6.105a9.157 9.157 0 0 1-8.541 0L4.607 7.921c.023-.154.046-.308.071-.461.233-1.48 1.497-2.614 3.058-2.744l3.125-.259zm25.68 6.654a54.95 54.95 0 0 1-.451 13.453c-.233 1.48-1.497 2.614-3.058 2.744l-3.125.259a115.15 115.15 0 0 1-19.047 0l-3.125-.259c-1.561-.13-2.825-1.264-3.058-2.744a54.902 54.902 0 0 1-.45-13.453l10.379 5.507a12.386 12.386 0 0 0 11.556 0l10.379-5.507z"/>
    </symbol>
    <symbol id="icon-user" viewBox="0 0 27 32">
      <path d="M6.547 8.737a7.28 7.28 0 1 1 14.558 0 7.28 7.28 0 0 1-14.558 0zm7.279-4.71a4.71 4.71 0 1 0 0 9.42 4.71 4.71 0 0 0 0-9.42zM6.975 21.154a3.854 3.854 0 0 0-3.854 3.854v2.035c0 .031.022.057.053.062a66.089 66.089 0 0 0 21.303 0 .063.063 0 0 0 .053-.062v-2.035a3.854 3.854 0 0 0-3.854-3.854h-.584a.43.43 0 0 0-.133.021l-1.482.484a14.984 14.984 0 0 1-9.303 0l-1.482-.484a.43.43 0 0 0-.133-.021h-.584zM.552 25.007a6.423 6.423 0 0 1 6.423-6.423h.584c.316 0 .63.05.93.148l1.482.484c2.504.818 5.204.818 7.709 0l1.482-.484c.3-.098.614-.148.93-.148h.584a6.423 6.423 0 0 1 6.423 6.423v2.035c0 1.29-.935 2.39-2.208 2.598a68.695 68.695 0 0 1-22.13 0 2.633 2.633 0 0 1-2.208-2.598v-2.035z"/>
    </symbol>
  </defs>
</svg>
