<svg aria-hidden="true" style="position: absolute; width: 0; height: 0; overflow: hidden;" version="1.1" xmlns="http://www.w3.org/2000/svg" xmlns:xlink="http://www.w3.org/1999/xlink">
<defs>
<symbol id="icon-hero-top" viewBox="0 0 72 32">
<path fill="none" opacity="0.2" stroke="#a596ff" style="stroke: var(--color1, #a596ff)" stroke-linejoin="miter" stroke-linecap="round" stroke-miterlimit="4" stroke-width="0.7744" d="M141.471-32.585c-5.659-2.415-10.858-5.209-17.309-6.351-4.608-0.816-9.348-0.758-14.131 0.387-8.918 2.135-17.761 5.597-25.3 10.424-7.704 4.931-15.923 9.616-22.392 15.717-6.014 5.673-11.368 11.976-17.724 17.389-10.65 9.069-25.315 13.787-39.185 17.452-7.338 1.939-14.713 3.839-22.092 5.61-4.631 1.112-9.48 1.817-13.933 3.48"></path>
<path fill="none" opacity="0.2" stroke="#a596ff" style="stroke: var(--color1, #a596ff)" stroke-linejoin="miter" stroke-linecap="round" stroke-miterlimit="4" stroke-width="0.7744" d="M141.311-41.276c-6.115-2.608-11.731-5.624-18.702-6.857-4.978-0.88-10.1-0.817-15.268 0.42-9.636 2.307-19.191 6.048-27.337 11.261-8.324 5.327-17.206 10.388-24.196 16.978-6.498 6.127-12.285 12.936-19.153 18.783-11.508 9.797-27.354 14.894-42.34 18.854-7.928 2.095-15.897 4.148-23.87 6.062-5.003 1.201-10.243 1.963-15.055 3.76"></path>
</symbol>
<symbol id="icon-hero-bottom" viewBox="0 0 18 32">
<path fill="none" opacity="0.2" stroke="#a596ff" style="stroke: var(--color1, #a596ff)" stroke-linejoin="miter" stroke-linecap="round" stroke-miterlimit="4" stroke-width="0.4415" d="M21.94 0.275c-1.982 1.244-4.226 2.414-6.023 3.892-1.759 1.445-3.441 3.306-4.756 5.038-2.424 3.192-2.962 6.22-3.134 9.595-0.283 5.569 1.088 10.506 3.421 15.224 1.545 3.124 3.218 6.143 5.108 9.080 0.577 0.897 1.074 2.004 2.181 2.471"></path>
<path fill="none" opacity="0.2" stroke="#a596ff" style="stroke: var(--color1, #a596ff)" stroke-linejoin="miter" stroke-linecap="round" stroke-miterlimit="4" stroke-width="0.4415" d="M27.271 0.386c-2.041 1.281-4.352 2.487-6.204 4.008-1.812 1.489-3.544 3.405-4.898 5.189-2.496 3.288-3.050 6.407-3.226 9.883-0.291 5.737 1.122 10.822 3.525 15.684 1.591 3.218 3.316 6.328 5.262 9.354 0.594 0.924 1.106 2.064 2.247 2.545"></path>
</symbol>
</defs>
</svg>
