<svg aria-hidden="true" style="position: absolute; width: 0; height: 0; overflow: hidden;" version="1.1" xmlns="http://www.w3.org/2000/svg" xmlns:xlink="http://www.w3.org/1999/xlink">
<defs>
<symbol id="icon-hero-top" viewBox="0 0 72 32">
<path fill="none" opacity="0.2" stroke="#a596ff" style="stroke: var(--color1, #a596ff)" stroke-linejoin="miter" stroke-linecap="round" stroke-miterlimit="4" stroke-width="0.7744" d="M141.471-32.585c-5.659-2.415-10.858-5.209-17.309-6.351-4.608-0.816-9.348-0.758-14.131 0.387-8.918 2.135-17.761 5.597-25.3 10.424-7.704 4.931-15.923 9.616-22.392 15.717-6.014 5.673-11.368 11.976-17.724 17.389-10.65 9.069-25.315 13.787-39.185 17.452-7.338 1.939-14.713 3.839-22.092 5.61-4.631 1.112-9.48 1.817-13.933 3.48"></path>
<path fill="none" opacity="0.2" stroke="#a596ff" style="stroke: var(--color1, #a596ff)" stroke-linejoin="miter" stroke-linecap="round" stroke-miterlimit="4" stroke-width="0.7744" d="M141.311-41.276c-6.115-2.608-11.731-5.624-18.702-6.857-4.978-0.88-10.1-0.817-15.268 0.42-9.636 2.307-19.191 6.048-27.337 11.261-8.324 5.327-17.206 10.388-24.196 16.978-6.498 6.127-12.285 12.936-19.153 18.783-11.508 9.797-27.354 14.894-42.34 18.854-7.928 2.095-15.897 4.148-23.87 6.062-5.003 1.201-10.243 1.963-15.055 3.76"></path>
</symbol>
<symbol id="icon-hero-bottom" viewBox="0 0 18 32">
<path fill="none" opacity="0.2" stroke="#a596ff" style="stroke: var(--color1, #a596ff)" stroke-linejoin="miter" stroke-linecap="round" stroke-miterlimit="4" stroke-width="0.4415" d="M21.94 0.275c-1.982 1.244-4.226 2.414-6.023 3.892-1.759 1.445-3.441 3.306-4.756 5.038-2.424 3.192-2.962 6.22-3.134 9.595-0.283 5.569 1.088 10.506 3.421 15.224 1.545 3.124 3.218 6.143 5.108 9.080 0.577 0.897 1.074 2.004 2.181 2.471"></path>
<path fill="none" opacity="0.2" stroke="#a596ff" style="stroke: var(--color1, #a596ff)" stroke-linejoin="miter" stroke-linecap="round" stroke-miterlimit="4" stroke-width="0.4415" d="M27.271 0.386c-2.041 1.281-4.352 2.487-6.204 4.008-1.812 1.489-3.544 3.405-4.898 5.189-2.496 3.288-3.050 6.407-3.226 9.883-0.291 5.737 1.122 10.822 3.525 15.684 1.591 3.218 3.316 6.328 5.262 9.354 0.594 0.924 1.106 2.064 2.247 2.545"></path>
</symbol>
<symbol id="icon-Logo-eatly" viewBox="0 0 35 32">
<path fill="#6c5fbc" style="fill: var(--color1, #6c5fbc)" d="M7.931 3.711h21.11c2.868 0 5.194 2.325 5.194 5.194v17.435c0 2.868-2.325 5.194-5.194 5.194h-21.11c-2.868 0-5.194-2.325-5.194-5.194v-17.436c0-2.868 2.325-5.194 5.194-5.194z"></path>
<path fill="#dbd9ee" style="fill: var(--color2, #dbd9ee); stroke: var(--color1, #6c5fbc)" stroke="#6c5fbc" stroke-linejoin="miter" stroke-linecap="butt" stroke-miterlimit="4" stroke-width="1.5015" d="M5.194 0.751h21.11c2.454 0 4.443 1.989 4.443 4.443v17.435c0 2.454-1.989 4.443-4.443 4.443h-21.11c-2.454 0-4.443-1.989-4.443-4.443v-17.435c0-2.454 1.989-4.443 4.443-4.443z"></path>
<path fill="none" stroke="#6c5fbc" style="stroke: var(--color1, #6c5fbc)" stroke-linejoin="round" stroke-linecap="round" stroke-miterlimit="4" stroke-width="1.5532" d="M24.311 8.98l-17.066-0.075"></path>
<path fill="none" stroke="#6c5fbc" style="stroke: var(--color1, #6c5fbc)" stroke-linejoin="round" stroke-linecap="round" stroke-miterlimit="4" stroke-width="1.5532" d="M24.302 12.397l-3.797-0.019c-1.571-0.008-2.841-1.544-2.836-3.429s1.284-3.409 2.855-3.401l3.797 0.019"></path>
<path fill="none" stroke="#6c5fbc" style="stroke: var(--color1, #6c5fbc)" stroke-linejoin="round" stroke-linecap="round" stroke-miterlimit="4" stroke-width="1.5532" d="M12.938 19.912l-4.96-0.058c-0.406-0.002-0.747-0.403-0.755-0.89l-0.033-1.286c-0.008-0.51 0.335-0.94 0.76-0.938l4.904 0.058 0.084 3.115z"></path>
<path fill="none" stroke="#6c5fbc" style="stroke: var(--color1, #6c5fbc)" stroke-linejoin="round" stroke-linecap="round" stroke-miterlimit="4" stroke-width="1.5532" d="M20.727 21.765l-7.010-0.091c-0.406-0.002-0.747-0.403-0.755-0.89l-0.091-4 11.388 0.146 0.008 0.51c0.058 2.416-1.536 4.357-3.54 4.325z"></path>
</symbol>
<symbol id="icon-facebook-footer" viewBox="0 0 16 32">
<path d="M14.382 15.941h-4.454v15.941h-6.642v-15.941h-3.126v-5.626h3.126v-3.673c0-2.579 1.25-6.642 6.642-6.642h4.923v5.47h-3.516c-0.547 0-1.407 0.313-1.407 1.563v3.282h5.001l-0.547 5.626z"></path>
</symbol>
<symbol id="icon-linkedin-footer" viewBox="0 0 34 32">
<path d="M32.16 18.648v11.773h-6.875v-11c0-2.75-0.945-4.641-3.438-4.641-1.89 0-3.008 1.289-3.523 2.492-0.172 0.43-0.258 1.031-0.258 1.633v11.515h-6.875c0 0 0.086-18.648 0-20.539h6.875v2.922c0 0 0 0.086-0.086 0.086h0.086v-0.086c0.945-1.375 2.492-3.437 6.188-3.437 4.469 0 7.906 3.008 7.906 9.281zM4.144 0c-2.32 0-3.867 1.547-3.867 3.523s1.461 3.523 3.781 3.523h0.086c2.406 0 3.867-1.547 3.867-3.523-0.086-1.977-1.547-3.523-3.867-3.523zM0.621 30.421h6.789v-20.539h-6.789v20.539z"></path>
</symbol>
<symbol id="icon-instagram-footer" viewBox="0 0 34 32">
<path d="M16.26 0c2.121 0.076 4.318 0.076 6.439 0.151 1.894 0.076 3.636 0.379 5.302 1.363 2.121 1.288 3.409 3.182 3.863 5.605 0.227 1.439 0.303 2.954 0.379 4.394 0.076 3.181 0 6.363 0 9.544 0 1.666-0.076 3.333-0.606 4.924-1.060 3.106-3.257 4.999-6.439 5.605-1.439 0.303-2.954 0.303-4.393 0.379-3.182 0.076-6.287 0-9.469 0-1.667 0-3.333-0.076-4.924-0.606-3.106-1.061-5-3.257-5.606-6.439-0.303-1.439-0.303-2.954-0.379-4.393-0.076-3.182 0-6.363 0-9.544 0-1.666 0.076-3.333 0.606-4.924 1.060-3.106 3.257-4.999 6.439-5.605 1.439-0.303 2.954-0.303 4.394-0.379s2.878-0.076 4.393-0.076zM29.364 15.681c-0.076 0 0 0 0 0-0.076-1.288-0.076-2.5-0.076-3.787 0-1.212-0.076-2.424-0.227-3.636-0.303-2.727-1.894-4.545-4.545-5.075-1.363-0.303-2.878-0.303-4.242-0.303-2.727-0.076-5.378-0.076-8.105 0-1.364 0-2.727 0.076-4.015 0.303-2.272 0.379-3.863 1.667-4.545 3.939-0.227 0.758-0.303 1.515-0.379 2.272-0.076 2.879-0.076 5.757-0.076 8.635 0 1.818 0.076 3.712 0.227 5.53 0.227 2.727 1.894 4.621 4.621 5.075 1.363 0.227 2.803 0.303 4.242 0.303 2.651 0.076 5.303 0 8.029 0 1.212 0 2.424-0.076 3.636-0.227 1.136-0.076 2.197-0.455 3.106-1.212 1.515-1.212 2.045-2.803 2.121-4.621 0.152-2.272 0.152-4.696 0.227-7.196z"></path>
<path d="M24.44 15.982c0 4.545-3.636 8.181-8.181 8.181s-8.181-3.636-8.181-8.257c0-4.469 3.712-8.105 8.257-8.105 4.469 0 8.105 3.636 8.105 8.181zM16.26 21.286c2.878 0 5.302-2.424 5.302-5.302s-2.424-5.302-5.302-5.302c-2.954 0-5.303 2.424-5.303 5.302-0.076 2.878 2.348 5.302 5.303 5.302z"></path>
<path d="M26.638 7.423c0 1.061-0.833 1.97-1.894 1.97s-1.969-0.909-1.894-1.97c0-1.060 0.833-1.894 1.894-1.894s1.894 0.833 1.894 1.894z"></path>
</symbol>
<symbol id="icon-twitter-footer" viewBox="0 0 39 32">
<path d="M37.499 4.247c-1.372 0.6-2.744 1.029-4.287 1.2 1.543-0.943 2.744-2.401 3.258-4.115-1.457 0.857-3.086 1.457-4.715 1.8-1.372-1.457-3.344-2.401-5.487-2.401-4.115 0-7.459 3.344-7.459 7.459 0 0.6 0.086 1.2 0.171 1.715-6.259-0.343-11.746-3.258-15.432-7.802-0.686 1.115-1.029 2.401-1.029 3.772 0 2.572 1.286 4.887 3.344 6.259-1.2 0-2.401-0.343-3.429-0.943v0.086c0 3.601 2.572 6.687 6.001 7.373-0.6 0.171-1.286 0.257-1.972 0.257-0.514 0-0.943-0.086-1.372-0.171 0.943 3.001 3.687 5.144 7.030 5.23-2.572 1.972-5.744 3.172-9.259 3.172-0.6 0-1.2 0-1.8-0.086 3.344 2.143 7.202 3.344 11.488 3.344 13.803 0 21.262-11.402 21.262-21.262 0-0.343 0-0.686 0-0.943 1.457-1.114 2.743-2.486 3.686-3.944z"></path>
</symbol>
</defs>
</svg>
