<svg aria-hidden="true" style="position: absolute; width: 0; height: 0; overflow: hidden;" version="1.1" xmlns="http://www.w3.org/2000/svg" xmlns:xlink="http://www.w3.org/1999/xlink">
<defs>
<symbol id="icon-arrow-dropdown" viewBox="0 0 32 32">
<path stroke-linejoin="miter" stroke-linecap="round" stroke-miterlimit="4" d="M29.714 24l-13.714-13.714-13.714 13.714"></path>
</symbol>
<symbol id="icon-menu" viewBox="0 0 44 32">
<path fill="#918f8f" style="fill: var(--color1, #918f8f)" d="M1.6 1.28v0z"></path>
<path fill="none" stroke="#282828" style="stroke: var(--color2, #282828)" stroke-linejoin="miter" stroke-linecap="round" stroke-miterlimit="4" stroke-width="2.56" d="M1.6 1.28h40.32"></path>
<path fill="#918f8f" style="fill: var(--color1, #918f8f)" d="M1.6 15.569v0z"></path>
<path fill="none" stroke="#282828" style="stroke: var(--color2, #282828)" stroke-linejoin="miter" stroke-linecap="round" stroke-miterlimit="4" stroke-width="2.56" d="M1.6 15.569h40.32"></path>
<path fill="#918f8f" style="fill: var(--color1, #918f8f)" d="M1.6 29.857v0z"></path>
<path fill="none" stroke="#282828" style="stroke: var(--color2, #282828)" stroke-linejoin="miter" stroke-linecap="round" stroke-miterlimit="4" stroke-width="2.56" d="M1.6 29.857h40.32"></path>
</symbol>
<symbol id="icon-hero-top" viewBox="0 0 72 32">
<path fill="none" opacity="0.2" stroke="#a596ff" style="stroke: var(--color1, #a596ff)" stroke-linejoin="miter" stroke-linecap="round" stroke-miterlimit="4" stroke-width="0.7744" d="M141.471-32.585c-5.659-2.415-10.858-5.209-17.309-6.351-4.608-0.816-9.348-0.758-14.131 0.387-8.918 2.135-17.761 5.597-25.3 10.424-7.704 4.931-15.923 9.616-22.392 15.717-6.014 5.673-11.368 11.976-17.724 17.389-10.65 9.069-25.315 13.787-39.185 17.452-7.338 1.939-14.713 3.839-22.092 5.61-4.631 1.112-9.48 1.817-13.933 3.48"></path>
<path fill="none" opacity="0.2" stroke="#a596ff" style="stroke: var(--color1, #a596ff)" stroke-linejoin="miter" stroke-linecap="round" stroke-miterlimit="4" stroke-width="0.7744" d="M141.311-41.276c-6.115-2.608-11.731-5.624-18.702-6.857-4.978-0.88-10.1-0.817-15.268 0.42-9.636 2.307-19.191 6.048-27.337 11.261-8.324 5.327-17.206 10.388-24.196 16.978-6.498 6.127-12.285 12.936-19.153 18.783-11.508 9.797-27.354 14.894-42.34 18.854-7.928 2.095-15.897 4.148-23.87 6.062-5.003 1.201-10.243 1.963-15.055 3.76"></path>
</symbol>
<symbol id="icon-hero-bottom" viewBox="0 0 18 32">
<path fill="none" opacity="0.2" stroke="#a596ff" style="stroke: var(--color1, #a596ff)" stroke-linejoin="miter" stroke-linecap="round" stroke-miterlimit="4" stroke-width="0.4415" d="M21.94 0.275c-1.982 1.244-4.226 2.414-6.023 3.892-1.759 1.445-3.441 3.306-4.756 5.038-2.424 3.192-2.962 6.22-3.134 9.595-0.283 5.569 1.088 10.506 3.421 15.224 1.545 3.124 3.218 6.143 5.108 9.080 0.577 0.897 1.074 2.004 2.181 2.471"></path>
<path fill="none" opacity="0.2" stroke="#a596ff" style="stroke: var(--color1, #a596ff)" stroke-linejoin="miter" stroke-linecap="round" stroke-miterlimit="4" stroke-width="0.4415" d="M27.271 0.386c-2.041 1.281-4.352 2.487-6.204 4.008-1.812 1.489-3.544 3.405-4.898 5.189-2.496 3.288-3.050 6.407-3.226 9.883-0.291 5.737 1.122 10.822 3.525 15.684 1.591 3.218 3.316 6.328 5.262 9.354 0.594 0.924 1.106 2.064 2.247 2.545"></path>
</symbol>
<symbol id="icon-Logo-eatly" viewBox="0 0 35 32">
<path fill="#6c5fbc" style="fill: var(--color1, #6c5fbc)" d="M7.931 3.711h21.11c2.868 0 5.194 2.325 5.194 5.194v17.435c0 2.868-2.325 5.194-5.194 5.194h-21.11c-2.868 0-5.194-2.325-5.194-5.194v-17.436c0-2.868 2.325-5.194 5.194-5.194z"></path>
<path fill="#dbd9ee" style="fill: var(--color2, #dbd9ee); stroke: var(--color1, #6c5fbc)" stroke="#6c5fbc" stroke-linejoin="miter" stroke-linecap="butt" stroke-miterlimit="4" stroke-width="1.5015" d="M5.194 0.751h21.11c2.454 0 4.443 1.989 4.443 4.443v17.435c0 2.454-1.989 4.443-4.443 4.443h-21.11c-2.454 0-4.443-1.989-4.443-4.443v-17.435c0-2.454 1.989-4.443 4.443-4.443z"></path>
<path fill="none" stroke="#6c5fbc" style="stroke: var(--color1, #6c5fbc)" stroke-linejoin="round" stroke-linecap="round" stroke-miterlimit="4" stroke-width="1.5532" d="M24.311 8.98l-17.066-0.075"></path>
<path fill="none" stroke="#6c5fbc" style="stroke: var(--color1, #6c5fbc)" stroke-linejoin="round" stroke-linecap="round" stroke-miterlimit="4" stroke-width="1.5532" d="M24.302 12.397l-3.797-0.019c-1.571-0.008-2.841-1.544-2.836-3.429s1.284-3.409 2.855-3.401l3.797 0.019"></path>
<path fill="none" stroke="#6c5fbc" style="stroke: var(--color1, #6c5fbc)" stroke-linejoin="round" stroke-linecap="round" stroke-miterlimit="4" stroke-width="1.5532" d="M12.938 19.912l-4.96-0.058c-0.406-0.002-0.747-0.403-0.755-0.89l-0.033-1.286c-0.008-0.51 0.335-0.94 0.76-0.938l4.904 0.058 0.084 3.115z"></path>
<path fill="none" stroke="#6c5fbc" style="stroke: var(--color1, #6c5fbc)" stroke-linejoin="round" stroke-linecap="round" stroke-miterlimit="4" stroke-width="1.5532" d="M20.727 21.765l-7.010-0.091c-0.406-0.002-0.747-0.403-0.755-0.89l-0.091-4 11.388 0.146 0.008 0.51c0.058 2.416-1.536 4.357-3.54 4.325z"></path>
</symbol>
<symbol id="icon-facebook-footer" viewBox="0 0 16 32">
<path d="M14.382 15.941h-4.454v15.941h-6.642v-15.941h-3.126v-5.626h3.126v-3.673c0-2.579 1.25-6.642 6.642-6.642h4.923v5.47h-3.516c-0.547 0-1.407 0.313-1.407 1.563v3.282h5.001l-0.547 5.626z"></path>
</symbol>
<symbol id="icon-linkedin-footer" viewBox="0 0 34 32">
<path d="M32.16 18.648v11.773h-6.875v-11c0-2.75-0.945-4.641-3.438-4.641-1.89 0-3.008 1.289-3.523 2.492-0.172 0.43-0.258 1.031-0.258 1.633v11.515h-6.875c0 0 0.086-18.648 0-20.539h6.875v2.922c0 0 0 0.086-0.086 0.086h0.086v-0.086c0.945-1.375 2.492-3.437 6.188-3.437 4.469 0 7.906 3.008 7.906 9.281zM4.144 0c-2.32 0-3.867 1.547-3.867 3.523s1.461 3.523 3.781 3.523h0.086c2.406 0 3.867-1.547 3.867-3.523-0.086-1.977-1.547-3.523-3.867-3.523zM0.621 30.421h6.789v-20.539h-6.789v20.539z"></path>
</symbol>
<symbol id="icon-instagram-footer" viewBox="0 0 34 32">
<path d="M16.26 0c2.121 0.076 4.318 0.076 6.439 0.151 1.894 0.076 3.636 0.379 5.302 1.363 2.121 1.288 3.409 3.182 3.863 5.605 0.227 1.439 0.303 2.954 0.379 4.394 0.076 3.181 0 6.363 0 9.544 0 1.666-0.076 3.333-0.606 4.924-1.060 3.106-3.257 4.999-6.439 5.605-1.439 0.303-2.954 0.303-4.393 0.379-3.182 0.076-6.287 0-9.469 0-1.667 0-3.333-0.076-4.924-0.606-3.106-1.061-5-3.257-5.606-6.439-0.303-1.439-0.303-2.954-0.379-4.393-0.076-3.182 0-6.363 0-9.544 0-1.666 0.076-3.333 0.606-4.924 1.060-3.106 3.257-4.999 6.439-5.605 1.439-0.303 2.954-0.303 4.394-0.379s2.878-0.076 4.393-0.076zM29.364 15.681c-0.076 0 0 0 0 0-0.076-1.288-0.076-2.5-0.076-3.787 0-1.212-0.076-2.424-0.227-3.636-0.303-2.727-1.894-4.545-4.545-5.075-1.363-0.303-2.878-0.303-4.242-0.303-2.727-0.076-5.378-0.076-8.105 0-1.364 0-2.727 0.076-4.015 0.303-2.272 0.379-3.863 1.667-4.545 3.939-0.227 0.758-0.303 1.515-0.379 2.272-0.076 2.879-0.076 5.757-0.076 8.635 0 1.818 0.076 3.712 0.227 5.53 0.227 2.727 1.894 4.621 4.621 5.075 1.363 0.227 2.803 0.303 4.242 0.303 2.651 0.076 5.303 0 8.029 0 1.212 0 2.424-0.076 3.636-0.227 1.136-0.076 2.197-0.455 3.106-1.212 1.515-1.212 2.045-2.803 2.121-4.621 0.152-2.272 0.152-4.696 0.227-7.196z"></path>
<path d="M24.44 15.982c0 4.545-3.636 8.181-8.181 8.181s-8.181-3.636-8.181-8.257c0-4.469 3.712-8.105 8.257-8.105 4.469 0 8.105 3.636 8.105 8.181zM16.26 21.286c2.878 0 5.302-2.424 5.302-5.302s-2.424-5.302-5.302-5.302c-2.954 0-5.303 2.424-5.303 5.302-0.076 2.878 2.348 5.302 5.303 5.302z"></path>
<path d="M26.638 7.423c0 1.061-0.833 1.97-1.894 1.97s-1.969-0.909-1.894-1.97c0-1.060 0.833-1.894 1.894-1.894s1.894 0.833 1.894 1.894z"></path>
</symbol>
<symbol id="icon-twitter-footer" viewBox="0 0 39 32">
<path d="M37.499 4.247c-1.372 0.6-2.744 1.029-4.287 1.2 1.543-0.943 2.744-2.401 3.258-4.115-1.457 0.857-3.086 1.457-4.715 1.8-1.372-1.457-3.344-2.401-5.487-2.401-4.115 0-7.459 3.344-7.459 7.459 0 0.6 0.086 1.2 0.171 1.715-6.259-0.343-11.746-3.258-15.432-7.802-0.686 1.115-1.029 2.401-1.029 3.772 0 2.572 1.286 4.887 3.344 6.259-1.2 0-2.401-0.343-3.429-0.943v0.086c0 3.601 2.572 6.687 6.001 7.373-0.6 0.171-1.286 0.257-1.972 0.257-0.514 0-0.943-0.086-1.372-0.171 0.943 3.001 3.687 5.144 7.030 5.23-2.572 1.972-5.744 3.172-9.259 3.172-0.6 0-1.2 0-1.8-0.086 3.344 2.143 7.202 3.344 11.488 3.344 13.803 0 21.262-11.402 21.262-21.262 0-0.343 0-0.686 0-0.943 1.457-1.114 2.743-2.486 3.686-3.944z"></path>
</symbol>
<symbol id="icon-plus" viewBox="0 0 32 32">
<path d="M32 14.945h-14.945v-14.945h-2.11v14.945h-14.945v2.11h14.945v14.945h2.11v-14.945h14.945z"></path>
</symbol>
<symbol id="icon-minus" viewBox="0 0 32 32">
<path d="M4 14h24v4h-24z"></path>
</symbol>
<symbol id="icon-close-order" viewBox="0 0 32 32">
<path d="M32 3.224l-3.224-3.224-12.776 12.776-12.776-12.776-3.224 3.224 12.776 12.776-12.776 12.776 3.224 3.224 12.776-12.776 12.776 12.776 3.224-3.224-12.776-12.776 12.776-12.776z"></path>
</symbol>
<symbol id="icon-basket" viewBox="0 0 32 32">
<path d="M1 1.219c-0.325 0.106-0.637 0.381-0.831 0.744-0.175 0.337-0.188 1.031-0.019 1.35 0.163 0.306 0.4 0.55 0.694 0.706 0.238 0.131 0.356 0.138 2.031 0.169 1.938 0.031 1.963 0.037 2.156 0.406 0.119 0.219 2.975 13.056 2.912 13.081-0.269 0.1-0.912 0.556-1.2 0.844-1.388 1.381-1.288 3.981 0.206 5.325 0.419 0.375 1.181 0.75 1.719 0.837 0.306 0.050 2.769 0.069 8.838 0.056l8.413-0.019 0.3-0.188c0.206-0.131 0.356-0.294 0.494-0.531 0.169-0.3 0.194-0.4 0.188-0.781-0.006-0.663-0.3-1.131-0.869-1.387-0.238-0.106-0.725-0.113-8.563-0.144-8.931-0.031-8.531-0.019-8.656-0.35-0.106-0.269-0.069-0.45 0.119-0.663l0.181-0.206 17.669-0.063 0.456-0.169c0.625-0.225 1.063-0.506 1.506-0.95 0.444-0.456 0.781-0.988 0.944-1.512 0.206-0.675 2.325-12.713 2.288-12.981-0.087-0.537-0.563-1.1-1.031-1.231-0.144-0.038-4.3-0.063-11.644-0.063h-11.419l-0.206-0.394c-0.419-0.788-1.337-1.519-2.3-1.831-0.475-0.15-3.931-0.2-4.375-0.056zM4.625 2.063c0.581 0.063 1.206 0.325 1.631 0.681 0.294 0.244 0.65 0.762 0.838 1.231l0.15 0.369 11.75 0.031c11.719 0.031 11.756 0.031 11.881 0.156 0.069 0.075 0.15 0.213 0.175 0.313 0.044 0.138-0.225 1.737-1.019 6.188-0.587 3.3-1.106 6.144-1.15 6.325-0.212 0.875-0.962 1.669-1.919 2.031l-0.369 0.144-8.813 0.031c-9.762 0.038-9.019 0-9.463 0.444-0.744 0.738-0.531 1.975 0.419 2.444l0.294 0.144 16.731 0.063 0.119 0.15c0.188 0.225 0.163 0.694-0.044 0.887l-0.163 0.15-8.225 0.019c-5.375 0.006-8.344-0.006-8.569-0.050-0.819-0.15-1.569-0.7-1.912-1.4-0.088-0.181-0.206-0.569-0.263-0.85-0.088-0.438-0.094-0.581-0.025-0.962 0.1-0.587 0.306-1.025 0.669-1.419 0.375-0.4 0.731-0.606 1.331-0.781 0.313-0.094 0.469-0.169 0.456-0.225-0.012-0.044-0.088-0.25-0.169-0.456s-0.781-3.256-1.563-6.781c-0.987-4.481-1.456-6.506-1.569-6.731-0.169-0.344-0.481-0.638-0.881-0.813-0.2-0.094-0.519-0.112-1.994-0.144-1.913-0.031-1.919-0.038-2.013-0.4-0.1-0.369 0.1-0.756 0.419-0.806 0.344-0.050 2.75-0.038 3.256 0.019z"></path>
<path d="M7.531 5.763c0.019 0.081 0.594 2.681 1.281 5.788 0.688 3.1 1.294 5.725 1.344 5.825 0.144 0.281 0.519 0.625 0.838 0.775l0.287 0.131h15.188l0.319-0.169c0.413-0.219 0.75-0.613 0.869-1.012 0.056-0.175 0.531-2.781 1.063-5.787s0.981-5.519 0.994-5.581c0.025-0.1-0.538-0.106-11.094-0.106h-11.119l0.031 0.138zM15.156 9.125v2.594l-2.694 0.019-2.694 0.012-0.569-2.581c-0.319-1.425-0.575-2.606-0.575-2.625 0-0.025 1.469-0.037 3.269-0.031l3.262 0.019v2.594zM21.75 9.125v2.625h-5.688v-5.25h5.688v2.625zM28.625 6.625c0 0.069-0.194 1.219-0.438 2.563-0.238 1.344-0.438 2.469-0.438 2.5 0 0.044-0.887 0.056-2.544 0.050l-2.55-0.019-0.019-2.531c-0.006-1.394 0-2.569 0.019-2.606 0.019-0.063 0.675-0.081 3-0.081 2.919 0 2.969 0 2.969 0.125zM15.175 15.012l-0.019 2.394-1.563 0.019c-1.963 0.025-2.162 0-2.45-0.262-0.219-0.2-0.225-0.212-0.681-2.294-0.256-1.144-0.463-2.125-0.463-2.162 0-0.063 0.55-0.081 2.594-0.081h2.594l-0.012 2.388zM21.75 15.031v2.406h-5.688v-4.813h5.688v2.406zM27.563 12.662c0 0.019-0.169 0.975-0.375 2.131-0.275 1.538-0.413 2.144-0.5 2.269-0.231 0.319-0.375 0.344-2.281 0.344h-1.75l-0.019-2.394-0.012-2.387h2.469c1.356 0 2.469 0.019 2.469 0.037zM10.181 25.113c-2.181 0.569-2.912 3.294-1.313 4.887 1.119 1.119 2.894 1.144 4.044 0.050 0.619-0.581 0.9-1.238 0.9-2.087 0-1.163-0.625-2.175-1.644-2.65-0.688-0.325-1.281-0.381-1.988-0.2zM11.8 26.125c0.431 0.219 0.781 0.575 0.975 0.994 0.188 0.406 0.188 1.231 0 1.637-0.194 0.419-0.544 0.775-0.975 0.994-0.325 0.156-0.456 0.188-0.838 0.188-0.863 0-1.488-0.375-1.85-1.113-0.175-0.356-0.206-0.481-0.206-0.887s0.031-0.531 0.206-0.887c0.363-0.738 0.969-1.106 1.831-1.113 0.406 0 0.525 0.025 0.856 0.188z"></path>
<path d="M10.438 26.756c-0.206 0.081-0.55 0.419-0.669 0.65-0.131 0.244-0.131 0.819 0 1.069 0.144 0.275 0.469 0.575 0.719 0.656 0.119 0.038 0.369 0.056 0.55 0.044 1.15-0.094 1.544-1.6 0.594-2.269-0.206-0.144-0.338-0.188-0.65-0.2-0.213-0.012-0.456 0.012-0.544 0.050zM11.206 27.762l0.131 0.175-0.131 0.169c-0.156 0.212-0.294 0.244-0.488 0.119-0.206-0.137-0.213-0.431-0.012-0.569 0.188-0.131 0.35-0.1 0.5 0.106zM22.469 25.069c-0.831 0.169-1.65 0.806-2.025 1.563-1.144 2.35 1.106 4.913 3.569 4.063 1-0.344 1.744-1.238 1.925-2.319 0.225-1.337-0.619-2.744-1.919-3.194-0.438-0.15-1.125-0.2-1.55-0.113zM23.875 26.1c0.425 0.194 0.769 0.525 0.988 0.931 0.15 0.275 0.169 0.381 0.169 0.906s-0.019 0.631-0.169 0.906c-0.363 0.688-1.019 1.094-1.775 1.094-0.525 0-0.881-0.113-1.25-0.394s-0.631-0.694-0.75-1.181c-0.1-0.394-0.1-0.456 0-0.844 0.119-0.494 0.381-0.906 0.75-1.188 0.375-0.288 0.681-0.381 1.225-0.387 0.375-0.006 0.538 0.025 0.813 0.156z"></path>
<path d="M22.531 26.794c-0.512 0.269-0.744 0.675-0.706 1.244 0.019 0.325 0.056 0.438 0.212 0.631 0.494 0.613 1.344 0.694 1.894 0.188 0.494-0.45 0.494-1.387 0-1.837-0.35-0.319-1.019-0.431-1.4-0.225zM23.313 27.688c0.069 0.069 0.125 0.181 0.125 0.25 0 0.163-0.212 0.375-0.375 0.375-0.069 0-0.181-0.056-0.25-0.125s-0.125-0.181-0.125-0.25 0.056-0.181 0.125-0.25 0.181-0.125 0.25-0.125 0.181 0.056 0.25 0.125z"></path>
</symbol>
<symbol id="icon-dump" viewBox="0 0 32 32">
<path d="M13.44 0c-1.053 0-1.92 0.868-1.92 1.92v1.28h-5c-0.080-0.015-0.16-0.015-0.24 0h-1.16c-0.020 0-0.040 0-0.060 0-0.353 0.018-0.628 0.317-0.61 0.67s0.317 0.628 0.67 0.61h0.7l2.3 25.92c0.080 0.895 0.842 1.6 1.74 1.6h12.28c0.898 0 1.66-0.705 1.74-1.6l2.3-25.92h0.7c0.23 0.003 0.445-0.117 0.563-0.317 0.115-0.2 0.115-0.445 0-0.645-0.117-0.2-0.332-0.32-0.563-0.317h-6.4v-1.28c0-1.052-0.867-1.92-1.92-1.92zM13.44 1.28h5.12c0.36 0 0.64 0.28 0.64 0.64v1.28h-6.4v-1.28c0-0.36 0.28-0.64 0.64-0.64zM7.1 4.48h17.8l-2.3 25.82c-0.020 0.223-0.258 0.42-0.46 0.42h-12.28c-0.203 0-0.44-0.198-0.46-0.42zM12.1 6.38c-0.027 0.005-0.055 0.013-0.080 0.020-0.297 0.067-0.508 0.335-0.5 0.64v21.12c-0.002 0.23 0.117 0.445 0.318 0.563 0.2 0.115 0.445 0.115 0.645 0 0.2-0.117 0.32-0.332 0.318-0.563v-21.12c0.008-0.185-0.068-0.362-0.2-0.487-0.135-0.128-0.318-0.19-0.5-0.173zM15.94 6.38c-0.027 0.005-0.055 0.013-0.080 0.020-0.297 0.067-0.508 0.335-0.5 0.64v21.12c-0.002 0.23 0.117 0.445 0.318 0.563 0.2 0.115 0.445 0.115 0.645 0 0.2-0.117 0.32-0.332 0.317-0.563v-21.12c0.008-0.185-0.067-0.362-0.2-0.487-0.135-0.128-0.317-0.19-0.5-0.173zM19.78 6.38c-0.027 0.005-0.055 0.013-0.080 0.020-0.297 0.067-0.508 0.335-0.5 0.64v21.12c-0.003 0.23 0.117 0.445 0.317 0.563 0.2 0.115 0.445 0.115 0.645 0 0.2-0.117 0.32-0.332 0.317-0.563v-21.12c0.008-0.185-0.067-0.362-0.2-0.487-0.135-0.128-0.317-0.19-0.5-0.173z"></path>
</symbol>
<symbol id="icon-menu-bar" viewBox="0 0 32 32">
<path d="M12.594 1.969c2.25-0.010 4.5 0 6.75 0.031 0.281 0.115 0.479 0.313 0.594 0.594 0.042 2.25 0.042 4.5 0 6.75-0.115 0.281-0.313 0.479-0.594 0.594-2.25 0.042-4.5 0.042-6.75 0-0.281-0.115-0.479-0.313-0.594-0.594-0.042-2.25-0.042-4.5 0-6.75 0.126-0.282 0.324-0.491 0.594-0.625zM12.594 11.969c2.25-0.010 4.5 0 6.75 0.031 0.281 0.115 0.479 0.313 0.594 0.594 0.042 2.25 0.042 4.5 0 6.75-0.115 0.281-0.313 0.479-0.594 0.594-2.25 0.042-4.5 0.042-6.75 0-0.281-0.115-0.479-0.313-0.594-0.594-0.042-2.25-0.042-4.5 0-6.75 0.126-0.283 0.324-0.491 0.594-0.625zM12.594 21.969c2.25-0.010 4.5 0 6.75 0.031 0.281 0.115 0.479 0.313 0.594 0.594 0.042 2.25 0.042 4.5 0 6.75-0.115 0.281-0.313 0.479-0.594 0.594-2.25 0.042-4.5 0.042-6.75 0-0.281-0.115-0.479-0.313-0.594-0.594-0.042-2.25-0.042-4.5 0-6.75 0.126-0.282 0.324-0.491 0.594-0.625z"></path>
</symbol>
<symbol id="icon-pizza" viewBox="0 0 31 32">
<path fill="#f2c05a" style="fill: var(--color1, #f2c05a)" d="M1.003 18.533v3.393h26.898c0.756 0 1.332-3.454 1.332-3.454l-28.229 0.060z"></path>
<path fill="#4c2f1b" style="fill: var(--color2, #4c2f1b)" d="M1.004 22.757c-0.003 0-0.006 0-0.009 0-0.454 0-0.822-0.368-0.822-0.822 0-0.003 0-0.005 0-0.008v0-3.394c0-0.457 0.373-0.83 0.831-0.83l28.25-0.060c0.234 0 0.478 0.111 0.619 0.283 0.161 0.194 0.224 0.431 0.177 0.667-0.689 4.164-1.735 4.164-2.129 4.164h-26.917zM27.669 21.118l0.055-0.112c0.126-0.252 0.271-0.698 0.473-1.447l0.068-0.255-26.407 0.060v1.754h25.81z"></path>
<path fill="#ffde8a" style="fill: var(--color3, #ffde8a)" d="M21.99 1.739c-0.211-0.112-0.461-0.178-0.726-0.178-0.401 0-0.768 0.151-1.045 0.398l0.002-0.001-19.198 16.572h3.582v9.547c0 1.131 0.914 2.043 2.048 2.043 0.002 0 0.004 0 0.006 0 1.128 0 2.043-0.915 2.043-2.043 0 0 0 0 0 0v0-9.547h2.129v4.505c0 1.152 0.954 2.105 2.108 2.105 1.153 0 2.108-0.953 2.108-2.105v-4.505h3.045c0.301 1.135 1.317 1.959 2.526 1.964h0.001c1.214 0 2.249-0.833 2.527-1.964l6.128-0.020c1.929-10.976-4.677-15.461-7.281-16.772z"></path>
<path fill="#ff5c5c" style="fill: var(--color4, #ff5c5c)" d="M15.665 8.965c0.007 0 0.014 0 0.022 0 1.157 0 2.095-0.938 2.095-2.095 0-0.801-0.45-1.497-1.11-1.849l-0.011-0.005-2.965 2.56c0.296 0.817 1.065 1.39 1.968 1.39 0 0 0.001 0 0.001 0h-0z"></path>
<path fill="#4c2f1b" style="fill: var(--color2, #4c2f1b)" d="M15.666 9.382c-1.083-0.006-2.004-0.69-2.361-1.649l-0.006-0.018c-0.017-0.043-0.027-0.094-0.027-0.146 0-0.125 0.056-0.236 0.145-0.31l0.001-0.001 2.964-2.56c0.070-0.067 0.166-0.108 0.271-0.108 0.069 0 0.133 0.018 0.189 0.048l-0.002-0.001c0.798 0.423 1.333 1.248 1.333 2.198 0 0.002 0 0.004 0 0.005v-0c0 0.012 0 0.026 0 0.039 0 1.381-1.12 2.501-2.501 2.501-0.002 0-0.004 0-0.006 0h0zM14.194 7.696c0.294 0.522 0.844 0.869 1.476 0.869 0.93 0 1.685-0.753 1.687-1.682v-0c0-0.537-0.258-1.034-0.677-1.35l-2.486 2.164z"></path>
<path fill="#ff5c5c" style="fill: var(--color4, #ff5c5c)" d="M22.649 10.769c-0.239 1.013 0.418 2.046 1.433 2.263 0.126 0.030 0.27 0.047 0.419 0.047 0.572 0 1.085-0.256 1.429-0.66l0.002-0.003-1.673-3.115c-0.775 0.098-1.431 0.655-1.611 1.468z"></path>
<path fill="#4c2f1b" style="fill: var(--color2, #4c2f1b)" d="M24.497 13.493c-1.273-0.008-2.302-1.042-2.302-2.316 0-0.178 0.020-0.351 0.058-0.518l-0.003 0.016c0.225-0.938 1-1.644 1.958-1.764l0.011-0.001c0.015-0.002 0.033-0.003 0.051-0.003 0.158 0 0.296 0.088 0.366 0.219l0.001 0.002 1.67 3.095c0.031 0.054 0.049 0.119 0.049 0.188 0 0.104-0.041 0.199-0.108 0.268l0-0c-0.458 0.517-1.094 0.814-1.751 0.814zM23.045 10.854c-0.079 0.396-0.018 0.794 0.199 1.111 0.219 0.337 0.538 0.575 0.935 0.655 0.437 0.098 0.895-0.020 1.253-0.298l-1.372-2.56c-0.517 0.178-0.895 0.575-1.014 1.092z"></path>
<path fill="#4c2f1b" style="fill: var(--color2, #4c2f1b)" d="M6.634 30.934c0 0 0 0 0 0-1.588 0-2.876-1.285-2.881-2.872v-8.717h-2.75c-0.005 0-0.011 0-0.016 0-0.345 0-0.639-0.222-0.745-0.531l-0.002-0.006c-0.037-0.088-0.058-0.19-0.058-0.297 0-0.248 0.114-0.469 0.293-0.614l0.001-0.001 19.2-16.576c0.446-0.379 1.009-0.588 1.588-0.588 0.382 0 0.751 0.086 1.094 0.258 2.331 1.173 9.778 5.908 7.71 17.607-0.069 0.392-0.408 0.687-0.815 0.687-0 0-0.001 0-0.001 0h0l-5.554 0.021-0.055 0.108c-0.579 1.111-1.722 1.856-3.039 1.856-0.002 0-0.003 0-0.005 0h0c-0.001 0-0.002 0-0.003 0-1.317 0-2.46-0.745-3.030-1.837l-0.009-0.019-0.057-0.11h-1.639v3.676c-0.034 1.587-1.328 2.861-2.92 2.861s-2.886-1.274-2.92-2.858l-0-0.003v-3.676h-0.485v8.718c-0.018 1.605-1.321 2.913-2.901 2.913zM21.243 2.393c-0.001 0-0.002 0-0.003 0-0.192 0-0.367 0.072-0.499 0.191l-17.517 15.119h1.36c0.23 0 0.431 0.082 0.566 0.231 0.164 0.164 0.246 0.368 0.246 0.599v9.546c0 0.681 0.554 1.234 1.236 1.234 0.004 0 0.010 0 0.015 0 0.675 0 1.222-0.547 1.222-1.222 0-0.004-0-0.009-0-0.013v0.001-9.547c0-0.457 0.374-0.83 0.832-0.83h2.129c0.23 0 0.431 0.082 0.566 0.231 0.162 0.164 0.246 0.368 0.246 0.599v4.505c0 0.705 0.571 1.276 1.276 1.276s1.276-0.571 1.276-1.276v0-4.526c0-0.458 0.373-0.83 0.832-0.83h3.044c0.38 0 0.702 0.25 0.799 0.623 0.204 0.777 0.9 1.341 1.728 1.342h0c0.828-0 1.524-0.564 1.725-1.329l0.003-0.012c0.091-0.36 0.413-0.623 0.796-0.623 0.001 0 0.001 0 0.002 0h-0l5.428-0.021 0.025-0.172c1.356-9.679-4.422-13.724-6.97-15.015-0.106-0.051-0.23-0.082-0.362-0.082h-0z"></path>
<path fill="#ffb07b" style="fill: var(--color5, #ffb07b)" d="M29.253 18.473c1.99-11.175-4.934-15.602-7.422-16.812-0.177-0.086-0.384-0.136-0.603-0.136-0.347 0-0.665 0.126-0.91 0.335l0.002-0.002-1.514 1.312c3.303 2.462 8.854 7.008 7.163 15.324l3.282-0.020z"></path>
<path fill="#4c2f1b" style="fill: var(--color2, #4c2f1b)" d="M25.974 19.305c-0.257-0.003-0.486-0.121-0.639-0.304l-0.001-0.001c-0.119-0.142-0.191-0.326-0.191-0.528 0-0.055 0.005-0.11 0.016-0.162l-0.001 0.005c1.457-7.184-2.651-11.359-6.862-14.494-0.2-0.148-0.33-0.381-0.337-0.644l-0-0.001c-0.001-0.014-0.001-0.029-0.001-0.045 0-0.242 0.111-0.458 0.285-0.6l0.001-0.001 1.515-1.312c0.405-0.35 0.916-0.542 1.44-0.542 0.334 0 0.666 0.080 0.962 0.231 2.38 1.158 9.975 5.855 7.871 17.71-0.069 0.392-0.408 0.687-0.815 0.687-0 0-0.001 0-0.001 0h-3.243zM21.211 2.338c-0.145 0.001-0.278 0.054-0.381 0.141l0.001-0.001-0.724 0.64 0.192 0.15c1.908 1.495 7.716 6.046 6.668 14.146l-0.030 0.228h1.6l0.025-0.172c1.381-9.865-4.517-13.831-7.116-15.078-0.068-0.034-0.149-0.054-0.234-0.054v0z"></path>
<path fill="#e2803d" style="fill: var(--color6, #e2803d)" d="M25.972 18.474s-0.18 2.182-0.975 3.452h2.923s1.034-0.556 1.333-3.454h-3.281z"></path>
<path fill="#4c2f1b" style="fill: var(--color2, #4c2f1b)" d="M24.994 22.754c-0.002 0-0.005 0-0.008 0-0.305 0-0.571-0.172-0.705-0.424l-0.002-0.004c-0.068-0.116-0.108-0.256-0.108-0.405 0-0.158 0.045-0.305 0.122-0.429l-0.002 0.003c0.572-0.93 0.809-2.583 0.846-3.089 0.036-0.419 0.385-0.746 0.811-0.746 0.001 0 0.001 0 0.002 0h3.284c0.244 0 0.462 0.096 0.599 0.263 0.172 0.191 0.246 0.409 0.214 0.64-0.337 3.189-1.529 3.972-1.764 4.096-0.1 0.060-0.22 0.095-0.349 0.095-0.005 0-0.010-0-0.015-0h-2.925zM26.687 19.463c-0.079 0.394-0.177 0.882-0.332 1.39l-0.081 0.261h1.334l0.062-0.086c0.135-0.196 0.395-0.647 0.587-1.479l0.058-0.247h-1.595l-0.032 0.162z"></path>
<path fill="#ff5c5c" style="fill: var(--color4, #ff5c5c)" d="M10.177 14.326c0 0.754 0.614 1.367 1.372 1.367 0.017 0.001 0.038 0.001 0.058 0.001 0.757 0 1.37-0.613 1.37-1.37s-0.613-1.37-1.37-1.37c-0.020 0-0.041 0-0.061 0.001l0.003-0c-0.758 0-1.372 0.613-1.372 1.369z"></path>
<path fill="#4c2f1b" style="fill: var(--color2, #4c2f1b)" d="M11.547 16.112c-0.986-0.002-1.785-0.799-1.79-1.784v-0c0-0.992 0.795-1.785 1.79-1.785s1.79 0.793 1.79 1.785c0 0.992-0.795 1.785-1.79 1.785zM11.547 13.375c-0.526 0-0.953 0.426-0.954 0.953v0c0 0.516 0.437 0.951 0.954 0.951s0.955-0.436 0.955-0.951c0-0.517-0.418-0.953-0.955-0.953z"></path>
<path fill="#3de25c" style="fill: var(--color7, #3de25c)" d="M18.309 15.692h-2.884c-0.162-0.004-0.293-0.134-0.298-0.296v-0.655c0-0.159 0.139-0.298 0.298-0.298h2.884c0.159 0 0.298 0.139 0.298 0.298v0.655c0.020 0.159-0.119 0.298-0.298 0.298z"></path>
<path fill="#4c2f1b" style="fill: var(--color2, #4c2f1b)" d="M17.993 16.11h-2.228c-0.002 0-0.005 0-0.007 0-0.567 0-1.026-0.46-1.026-1.026 0-0.002 0-0.004 0-0.007v0c0-0.575 0.457-1.031 1.034-1.031h2.228c0.576 0 1.034 0.455 1.034 1.031 0 0.002 0 0.004 0 0.006 0 0.567-0.46 1.026-1.026 1.026-0.003 0-0.005 0-0.008-0h0zM15.765 14.859c-0.12 0.001-0.217 0.098-0.219 0.218v0c0 0.119 0.098 0.219 0.219 0.219h2.228c0.12-0.001 0.218-0.099 0.219-0.219v-0c-0.002-0.12-0.099-0.216-0.219-0.218h-2.228z"></path>
<path fill="#3de25c" style="fill: var(--color7, #3de25c)" d="M20.298 12.695l-1.531-1.668c-0.028-0.028-0.045-0.067-0.045-0.11s0.017-0.082 0.045-0.11v0l0.697-0.634c0.028-0.028 0.067-0.045 0.11-0.045s0.081 0.017 0.11 0.045l-0-0 1.531 1.666c0.028 0.028 0.045 0.066 0.045 0.109s-0.017 0.081-0.045 0.109l0-0-0.697 0.635c-0.039 0.059-0.16 0.059-0.219 0z"></path>
<path fill="#4c2f1b" style="fill: var(--color2, #4c2f1b)" d="M20.443 13.092h-0.039c-0.205-0.008-0.387-0.098-0.516-0.238l-0-0.001-1.314-1.407c-0.124-0.132-0.2-0.31-0.2-0.506 0-0.215 0.092-0.409 0.239-0.545l0.439-0.398c0.133-0.124 0.311-0.2 0.508-0.2 0.216 0 0.411 0.092 0.546 0.239l0 0.001 1.312 1.409c0.124 0.132 0.201 0.31 0.201 0.506 0 0.216-0.092 0.409-0.24 0.544l-0.001 0.001-0.438 0.398c-0.132 0.117-0.306 0.191-0.496 0.197l-0.001 0zM19.249 10.929l1.194 1.289 0.318-0.297-1.194-1.29-0.318 0.298z"></path>
</symbol>
<symbol id="icon-donat" viewBox="0 0 32 32">
<path fill="#edb66b" style="fill: var(--color1, #edb66b)" d="M15.726 1.226c-8.204 0-14.872 6.646-14.872 14.871 0 8.205 6.648 14.872 14.872 14.872 8.205 0 14.871-6.648 14.871-14.872s-6.668-14.871-14.871-14.871zM15.726 21.028c-2.733-0.004-4.947-2.218-4.951-4.951v-0c0.005-2.732 2.219-4.945 4.951-4.95h0c2.732 0.004 4.946 2.218 4.951 4.949v0c0 0.002 0 0.004 0 0.006 0 2.731-2.214 4.945-4.945 4.945-0.002 0-0.005 0-0.007 0h0z"></path>
<path fill="#86522c" style="fill: var(--color2, #86522c)" d="M9.012 20.945c-0.006 0-0.013 0-0.020 0-0.347 0-0.661-0.141-0.888-0.369l-0-0c-0.541-0.561-0.522-1.527-0.484-2.669 0.019-0.986 0.059-2.225-0.406-2.708-0.097-0.115-0.291-0.251-0.735-0.27h-0.077c-0.485 0-0.832 0.096-1.027 0.31-0.387 0.406-0.329 1.315-0.291 2.051 0.059 0.773 0.097 1.45-0.348 1.837-0.328 0.31-0.773 0.465-1.257 0.465-0.947 0-2.070-0.658-2.437-1.431-0.035-0.062-0.056-0.135-0.058-0.213v-0l-0.019-0.193c-0.059-0.735-0.136-1.548-0.136-1.896 0-8.202 6.673-14.856 14.856-14.856 8.182 0 14.856 6.673 14.856 14.856 0 0.329-0.019 0.677-0.038 1.006-0.077 1.024-0.909 1.818-1.915 1.818-0.212 0-0.445-0.038-0.658-0.115-0.968-0.367-1.779-1.064-2.554-1.741-1.123-0.987-2.186-1.897-3.695-1.935-0.963-0.018-1.797-0.554-2.236-1.341l-0.007-0.013c-1.084-2.011-1.219-2.089-3.946-2.089-5.030 0-5.030 2.825-5.030 3.753 0 0.522 0.040 1.083 0.059 1.626 0.097 1.586 0.174 2.979-0.503 3.694-0.212 0.271-0.58 0.425-1.006 0.425z"></path>
<path fill="#4c2f1b" style="fill: var(--color3, #4c2f1b)" d="M15.725 1.64c7.853 0 14.236 6.364 14.236 14.237 0 0.329-0.019 0.657-0.038 0.966-0.058 0.696-0.639 1.219-1.276 1.219-0.006 0-0.014 0-0.022 0-0.146 0-0.285-0.028-0.412-0.080l0.007 0.003c-2.166-0.813-3.578-3.656-6.46-3.713-0.696-0.020-1.373-0.407-1.702-1.027-1.219-2.282-1.626-2.418-4.507-2.418-3.212 0-5.668 1.084-5.668 4.372 0 2.36 0.6 5.107-0.851 5.107-1.915 0 0.735-5.92-2.514-5.997h-0.097c-3.153 0-1.412 3.752-2.070 4.371-0.232 0.212-0.522 0.291-0.832 0.291-0.773 0-1.624-0.543-1.856-1.064-0.038-0.407-0.136-1.626-0.136-2.031-0.038-7.872 6.344-14.239 14.198-14.239zM15.725 0.364c-8.55 0-15.494 6.944-15.494 15.494 0 0.367 0.077 1.199 0.136 1.953l0.019 0.192c0.019 0.156 0.059 0.31 0.116 0.445 0.484 1.006 1.8 1.779 2.998 1.779 0.64 0 1.22-0.212 1.683-0.618 0.678-0.599 0.62-1.489 0.561-2.36-0.019-0.444-0.096-1.354 0.116-1.567 0.038-0.038 0.212-0.115 0.561-0.115h0.059c0.058 0 0.23 0 0.289 0.058 0.291 0.291 0.252 1.567 0.232 2.263-0.038 1.219-0.058 2.38 0.658 3.114 0.348 0.367 0.832 0.561 1.373 0.561 0.6 0 1.123-0.212 1.509-0.637 0.851-0.909 0.773-2.419 0.677-4.16-0.038-0.522-0.059-1.083-0.059-1.586 0-0.928 0-3.114 4.39-3.114 2.458 0 2.458 0 3.386 1.761 0.541 1.024 1.626 1.664 2.785 1.683 1.277 0.019 2.205 0.832 3.29 1.779 0.832 0.716 1.682 1.471 2.746 1.856 0.271 0.097 0.581 0.156 0.87 0.156 1.335 0 2.458-1.046 2.534-2.399 0.019-0.348 0.038-0.717 0.038-1.064 0.020-8.512-6.925-15.475-15.475-15.475z"></path>
<path fill="#e3a358" style="fill: var(--color4, #e3a358)" d="M17.861 29.8c0.108 0.282 0.549 0.374 0.986 0.206 0.439-0.166 0.705-0.531 0.598-0.812-0.108-0.282-0.549-0.374-0.986-0.207-0.439 0.169-0.705 0.532-0.598 0.813zM26.012 24.59c0.188 0.492 0.646 0.838 1.202 0.909 0.554 0.068 1.123-0.148 1.489-0.571 0.367-0.422 0.477-0.986 0.289-1.478-0.202-0.494-0.655-0.848-1.195-0.907l-0.006-0.001c-0.061-0.008-0.133-0.012-0.205-0.012-0.511 0-0.97 0.224-1.284 0.58l-0.002 0.002c-0.367 0.422-0.476 0.986-0.288 1.478zM11.935 30.728c0.188 0.492 0.646 0.837 1.201 0.908 0.556 0.069 1.124-0.148 1.491-0.571 0.366-0.422 0.476-0.986 0.288-1.477-0.202-0.495-0.654-0.849-1.194-0.908l-0.007-0.001c-0.061-0.008-0.132-0.012-0.204-0.012-0.512 0-0.972 0.225-1.285 0.581l-0.002 0.002c-0.233 0.258-0.376 0.601-0.376 0.978 0 0.18 0.032 0.351 0.092 0.51l-0.003-0.010zM8.832 28.454c0.297 0.068 0.593 0.028 0.778-0.102 0.109-0.069 0.181-0.189 0.181-0.326 0-0.077-0.023-0.148-0.061-0.208l0.001 0.002c-0.11-0.197-0.361-0.361-0.657-0.429-0.294-0.067-0.591-0.027-0.777 0.104-0.109 0.069-0.18 0.189-0.18 0.325 0 0.076 0.022 0.148 0.061 0.207l-0.001-0.002c0.11 0.198 0.361 0.362 0.657 0.429zM15.165 22.451c0.246 0.056 0.486 0.052 0.63-0.012 0.145-0.064 0.17-0.175 0.068-0.294-0.102-0.12-0.317-0.228-0.563-0.284-0.247-0.056-0.486-0.051-0.631 0.013s-0.17 0.175-0.068 0.294c0.102 0.12 0.317 0.228 0.563 0.284zM4.032 23.834c0.051 0.015 0.109 0.023 0.169 0.023 0.123 0 0.238-0.035 0.336-0.096l-0.003 0.002c0.072-0.048 0.118-0.128 0.118-0.219 0-0.050-0.014-0.097-0.038-0.136l0.001 0.001c-0.094-0.145-0.242-0.249-0.416-0.281l-0.004-0.001c-0.191-0.044-0.381-0.015-0.502 0.073-0.072 0.048-0.118 0.128-0.118 0.219 0 0.050 0.014 0.097 0.038 0.136l-0.001-0.001c0.070 0.131 0.23 0.238 0.42 0.282zM11.698 21.025c0.25 0.17 0.516 0.276 0.698 0.279s0.251-0.099 0.182-0.268c-0.069-0.168-0.266-0.375-0.517-0.545s-0.517-0.276-0.699-0.279c-0.182-0.003-0.25 0.099-0.182 0.266 0.070 0.169 0.268 0.376 0.518 0.547z"></path>
<path fill="#4c2f1b" style="fill: var(--color3, #4c2f1b)" d="M15.725 31.828c-8.676 0-15.732-7.058-15.732-15.731 0-8.678 7.057-15.735 15.731-15.735 8.676 0 15.734 7.057 15.734 15.732 0 8.675-7.058 15.731-15.732 15.731zM15.725 2.085c-7.715 0-13.99 6.276-13.99 13.99s6.276 13.99 13.99 13.99 13.99-6.276 13.99-13.99-6.276-13.99-13.99-13.99zM15.725 21.907c-3.208-0.004-5.808-2.603-5.811-5.811v-0c0-3.215 2.606-5.832 5.811-5.832 3.208 0.004 5.808 2.603 5.811 5.811v0c0 3.215-2.607 5.832-5.811 5.832zM15.725 12.006c-2.247 0.002-4.068 1.823-4.070 4.069v0c0.002 2.247 1.823 4.068 4.070 4.070h0c2.247-0.002 4.068-1.823 4.070-4.070v-0c-0.002-2.247-1.823-4.068-4.070-4.070h-0z"></path>
<path fill="#db79ad" style="fill: var(--color5, #db79ad)" d="M16.573 7.974l-3.395-2.243c-0.141-0.081-0.161-0.262-0.081-0.403l0.384-0.566c0.081-0.141 0.262-0.163 0.404-0.082l3.393 2.244c0.141 0.081 0.161 0.262 0.081 0.403l-0.384 0.566c-0.081 0.141-0.262 0.161-0.404 0.081z"></path>
<path fill="#f6b173" style="fill: var(--color6, #f6b173)" d="M3.095 11.53l0.89-1.939c0.060-0.141 0.243-0.202 0.384-0.141l0.627 0.282c0.141 0.061 0.201 0.243 0.141 0.384l-0.89 1.942c-0.060 0.141-0.243 0.201-0.384 0.141l-0.627-0.282c-0.141-0.082-0.221-0.243-0.141-0.384zM25.16 11.369l-1.697-1.313c-0.067-0.058-0.109-0.142-0.109-0.237 0-0.062 0.018-0.12 0.049-0.169l-0.001 0.001 0.424-0.545c0.058-0.067 0.142-0.109 0.237-0.109 0.062 0 0.12 0.018 0.169 0.049l-0.001-0.001 1.697 1.313c0.122 0.101 0.142 0.282 0.061 0.403l-0.425 0.547c-0.050 0.075-0.134 0.123-0.229 0.123-0.067 0-0.128-0.024-0.176-0.063l0 0z"></path>
<path fill="#f7e774" style="fill: var(--color7, #f7e774)" d="M20.9 8.622l-1.172-2.648c-0.060-0.141 0-0.323 0.142-0.384l0.627-0.282c0.141-0.061 0.323 0 0.384 0.141l1.171 2.647c0.060 0.142 0 0.324-0.141 0.384l-0.627 0.283c-0.141 0.061-0.303 0-0.384-0.141zM7.885 13.553l-1.171-2.647c-0.060-0.141 0-0.324 0.141-0.384l0.627-0.283c0.141-0.061 0.323 0 0.384 0.141l1.172 2.648c0.060 0.141 0 0.323-0.142 0.384l-0.627 0.282c-0.037 0.020-0.082 0.032-0.129 0.032-0.115 0-0.214-0.071-0.255-0.171l-0.001-0.002z"></path>
<path fill="#ec6a69" style="fill: var(--color8, #ec6a69)" d="M8.431 8.077l1.212-2.628c0.060-0.141 0.243-0.202 0.384-0.141l0.627 0.282c0.141 0.061 0.201 0.243 0.141 0.384l-1.212 2.628c-0.061 0.141-0.243 0.202-0.384 0.141l-0.627-0.282c-0.141-0.061-0.202-0.223-0.141-0.384zM26.676 14.664l0.404-2.87c0.020-0.161 0.161-0.262 0.324-0.243l0.687 0.102c0.161 0.019 0.262 0.161 0.242 0.323l-0.404 2.87c-0.020 0.161-0.161 0.262-0.323 0.243l-0.687-0.102c-0.163-0.019-0.262-0.161-0.243-0.323z"></path>
<path fill="#e3a358" style="fill: var(--color4, #e3a358)" d="M6.929 24.55c0.141 0.073 0.298 0.090 0.412 0.041 0.086-0.032 0.146-0.114 0.146-0.209 0-0.021-0.003-0.042-0.008-0.061l0 0.002c-0.045-0.139-0.143-0.25-0.271-0.31l-0.003-0.001c-0.072-0.042-0.16-0.067-0.252-0.067-0.057 0-0.112 0.009-0.163 0.027l0.004-0.001c-0.086 0.032-0.146 0.114-0.146 0.209 0 0.021 0.003 0.042 0.008 0.061l-0-0.002c0.044 0.14 0.143 0.251 0.271 0.311l0.003 0.001zM21.786 25.261c0.036 0.093 0.184 0.137 0.389 0.113s0.435-0.113 0.603-0.23c0.169-0.119 0.251-0.251 0.215-0.346-0.036-0.093-0.184-0.137-0.389-0.113s-0.435 0.111-0.604 0.23c-0.169 0.119-0.251 0.251-0.214 0.346zM12.714 24.2c0.192 0.141 0.419 0.205 0.595 0.164 0.152-0.026 0.267-0.158 0.267-0.316 0-0.015-0.001-0.030-0.003-0.045l0 0.002c-0.013-0.179-0.141-0.38-0.333-0.521-0.191-0.141-0.417-0.205-0.595-0.164-0.152 0.026-0.267 0.158-0.267 0.316 0 0.015 0.001 0.030 0.003 0.045l-0-0.002c0.013 0.18 0.141 0.38 0.333 0.521zM18.377 26.913c0.023 0.166 0.247 0.271 0.502 0.236 0.255-0.035 0.442-0.198 0.419-0.364-0.023-0.166-0.247-0.273-0.502-0.237-0.256 0.035-0.442 0.198-0.419 0.365z"></path>
</symbol>
<symbol id="icon-star" viewBox="0 0 34 32">
<path d="M21.982 31.413c3.097 1.696 5.822-0.361 5.23-3.957l-1.065-6.459 4.507-4.571c2.507-2.546 1.472-5.879-1.998-6.405l-6.229-0.942-2.77-5.847c-1.554-3.275-4.923-3.31-6.48-0.030l-2.786 5.877-6.229 0.942c-3.463 0.526-4.505 3.856-1.998 6.402l4.51 4.574-1.063 6.459c-0.594 3.591 2.126 5.655 5.23 3.954l5.57-3.045 5.573 3.049z"></path>
</symbol>
<symbol id="icon-stars" viewBox="0 0 192 32">
<path fill="#f59e0b" style="fill: var(--color1, #f59e0b)" opacity="0.8" d="M14.932 2.614c0.633-1.95 3.39-1.95 4.025 0l2.262 6.961c0.284 0.855 1.077 1.461 2.011 1.462h7.321c2.048 0 2.9 2.622 1.243 3.825l-5.922 4.303c-0.53 0.389-0.871 1.011-0.871 1.711 0 0.233 0.038 0.457 0.107 0.667l-0.004-0.015 2.262 6.966c0.633 1.947-1.598 3.569-3.254 2.363l-5.922-4.303c-0.344-0.252-0.776-0.403-1.243-0.403s-0.899 0.151-1.249 0.408l0.006-0.004-5.925 4.303c-1.657 1.206-3.889-0.416-3.254-2.363l2.265-6.966c0.065-0.194 0.102-0.418 0.102-0.65 0-0.702-0.341-1.323-0.867-1.709l-0.006-0.004-5.922-4.303c-1.657-1.206-0.805-3.825 1.243-3.825h7.321c0.934-0.001 1.727-0.607 2.007-1.447l0.004-0.015 2.265-6.964zM54.267 2.614c0.633-1.95 3.39-1.95 4.022 0l2.265 6.961c0.284 0.854 1.075 1.46 2.008 1.462h7.321c2.050 0 2.902 2.622 1.243 3.825l-5.92 4.303c-0.53 0.389-0.871 1.011-0.871 1.711 0 0.233 0.038 0.457 0.107 0.667l-0.004-0.015 2.265 6.966c0.63 1.947-1.6 3.569-3.257 2.363l-5.922-4.303c-0.344-0.252-0.776-0.403-1.243-0.403s-0.899 0.151-1.249 0.408l0.006-0.004-5.922 4.303c-1.659 1.206-3.889-0.416-3.254-2.363l2.262-6.966c0.065-0.194 0.102-0.418 0.102-0.65 0-0.702-0.341-1.323-0.867-1.709l-0.006-0.004-5.92-4.303c-1.659-1.206-0.807-3.825 1.243-3.825h7.321c0.934-0.001 1.727-0.607 2.007-1.447l0.004-0.015 2.262-6.964zM93.598 2.614c0.635-1.95 3.39-1.95 4.025 0l2.262 6.961c0.284 0.855 1.077 1.461 2.011 1.462h7.321c2.048 0 2.9 2.622 1.243 3.825l-5.922 4.303c-0.53 0.389-0.871 1.011-0.871 1.711 0 0.233 0.038 0.457 0.107 0.667l-0.004-0.015 2.262 6.966c0.633 1.947-1.598 3.569-3.254 2.363l-5.925-4.303c-0.344-0.252-0.776-0.403-1.243-0.403s-0.899 0.151-1.249 0.408l0.006-0.004-5.922 4.303c-1.657 1.206-3.889-0.416-3.254-2.363l2.265-6.966c0.065-0.194 0.102-0.418 0.102-0.65 0-0.702-0.341-1.323-0.867-1.709l-0.006-0.004-5.922-4.303c-1.657-1.206-0.805-3.825 1.243-3.825h7.321c0.934-0.001 1.727-0.607 2.007-1.447l0.004-0.015 2.265-6.964zM132.933 2.614c0.633-1.95 3.39-1.95 4.022 0l2.265 6.961c0.284 0.854 1.075 1.46 2.008 1.462h7.321c2.050 0 2.902 2.622 1.243 3.825l-5.922 4.303c-0.53 0.389-0.871 1.011-0.871 1.711 0 0.233 0.038 0.457 0.107 0.667l-0.004-0.015 2.265 6.966c0.633 1.947-1.6 3.569-3.257 2.363l-5.922-4.303c-0.344-0.252-0.776-0.403-1.243-0.403s-0.899 0.151-1.249 0.408l0.006-0.004-5.922 4.303c-1.657 1.206-3.889-0.416-3.254-2.363l2.262-6.966c0.065-0.194 0.102-0.418 0.102-0.65 0-0.702-0.341-1.323-0.867-1.709l-0.006-0.004-5.922-4.303c-1.657-1.206-0.805-3.825 1.246-3.825h7.321c0.934-0.001 1.727-0.607 2.007-1.447l0.004-0.015 2.262-6.964zM172.266 2.614c0.633-1.95 3.39-1.95 4.025 0l2.262 6.961c0.284 0.855 1.077 1.461 2.011 1.462h7.321c2.048 0 2.9 2.622 1.243 3.825l-5.922 4.303c-0.53 0.389-0.871 1.011-0.871 1.711 0 0.233 0.038 0.457 0.107 0.667l-0.004-0.015 2.262 6.966c0.633 1.947-1.598 3.569-3.254 2.363l-5.925-4.303c-0.344-0.252-0.776-0.403-1.243-0.403s-0.899 0.151-1.249 0.408l0.006-0.004-5.922 4.303c-1.657 1.206-3.889-0.416-3.254-2.363l2.265-6.966c0.065-0.194 0.102-0.418 0.102-0.65 0-0.702-0.341-1.323-0.867-1.709l-0.006-0.004-5.922-4.303c-1.659-1.206-0.805-3.825 1.243-3.825h7.321c0.934-0.001 1.727-0.607 2.007-1.447l0.004-0.015 2.265-6.964z"></path>
</symbol>
<symbol id="icon-star-green" viewBox="0 0 32 32">
<path fill="#00b67a" style="fill: var(--color1, #00b67a)" d="M31.448 12.305h-12.013l-3.701-11.425-3.72 11.424-12.013-0.021 9.717 7.069-3.72 11.424 9.716-7.069 9.717 7.069-3.699-11.424 9.716-7.047z"></path>
</symbol>
<symbol id="icon-heart" viewBox="0 0 32 32">
<path d="M5.775 16.063l10.225 10.604 10.225-10.604c1.099-1.148 1.775-2.708 1.775-4.426 0-0.007 0-0.013-0-0.019v0.001c0-3.471-2.713-6.285-6.061-6.285-1.685 0.005-3.204 0.71-4.283 1.838l-0.002 0.002-1.653 1.717-1.653-1.717c-1.082-1.13-2.601-1.835-4.284-1.84h-0.001c-3.347 0-6.061 2.813-6.061 6.285 0 1.667 0.639 3.267 1.775 4.444z"></path>
</symbol>
<symbol id="icon-wave" viewBox="0 0 46 32">
<path fill="none" stroke="#685bb8" style="stroke: var(--color1, #685bb8)" stroke-linejoin="round" stroke-linecap="round" stroke-miterlimit="1.5" stroke-width="2.8754" d="M36.839 1.979c-3.911 3.991-8.706 4.658-13.568 5.104-6.071 0.56-12.247 0.777-16.946 6.702M43.234 6.857c-3.566 5.070-8.747 8.066-14.869 8.741-3.205 0.354-6.453 0-9.634 0.606-7.173 1.362-13.833 5.714-16.958 12.448M36.249 20.999c-2.418 1.454-5.029 2.537-7.863 2.789-5.655 0.496-11.527-0.553-15.936 3.879"></path>
</symbol>
<symbol id="icon-Illustration-2" viewBox="0 0 34 32">
<path fill="none" stroke="#685bb8" style="stroke: var(--color1, #685bb8)" stroke-linejoin="round" stroke-linecap="round" stroke-miterlimit="1.5" stroke-width="2.2364" d="M23.068 26.944c2.443-5.46 4.254-11.124 6.443-16.672M6.69 30.222c6.668-7.136 12.663-15.111 18.169-23.157M1.38 14.048c6.345-2.162 14.272-7.936 20.117-11.676"></path>
</symbol>
<symbol id="icon-Illustration-3" viewBox="0 0 29 32">
<path  fill="none" stroke-linejoin="round" stroke-linecap="round" stroke-miterlimit="1.5" d="M15.122 4.255c-4.83 2.221-9.358 4.946-14.071 7.375M27.99 11.657c-8.638 0.866-17.315 2.688-25.71 4.844M22.072 25.58c-5.508-2.271-14.19-3.051-20.287-3.973"></path>
</symbol>
<symbol id="icon-spiral-arrow" viewBox="0 0 143 32">
<path stroke-linejoin="miter" stroke-linecap="butt" stroke-miterlimit="4" d="M1.067 12.802c11.2-18.135 129.068-2.89 51.2 10.554s6.933-11.623 21.866-12.98c14.933-1.358 43.734-3.767 27.734 12.662s20.8 3.631 40-8.636M1.067 12.802l16.533-2.135M1.067 12.802l2.667-11.735"></path>
</symbol>
<symbol id="icon-arrow-right" viewBox="0 0 32 32">
<path d="M19.414 27.414l10-10c0.781-0.781 0.781-2.047 0-2.828l-10-10c-0.781-0.781-2.047-0.781-2.828 0s-0.781 2.047 0 2.828l6.586 6.586h-19.172c-1.105 0-2 0.895-2 2s0.895 2 2 2h19.172l-6.586 6.586c-0.39 0.39-0.586 0.902-0.586 1.414s0.195 1.024 0.586 1.414c0.781 0.781 2.047 0.781 2.828 0z"></path>
</symbol>
<symbol id="icon-book" viewBox="0 0 26 32">
<path d="M20.521 0.593c-2.321-0.377-4.995-0.593-7.721-0.593s-5.4 0.216-8.008 0.631l0.288-0.038c-1.865 0.288-3.349 1.611-3.723 3.326-0.863 3.781-1.358 8.124-1.358 12.582 0 3.979 0.394 7.866 1.145 11.624l-0.063-0.376 0.625 3.209c0.192 0.99 1.5 1.387 2.289 0.691l7.52-6.601c0.344-0.295 0.794-0.474 1.286-0.474s0.943 0.179 1.289 0.476l-0.003-0.002 7.52 6.601c0.789 0.693 2.097 0.299 2.289-0.691l0.623-3.213c0.688-3.38 1.081-7.265 1.081-11.241 0-4.459-0.495-8.803-1.433-12.98l0.074 0.394c-0.373-1.715-1.856-3.038-3.721-3.328z"></path>
</symbol>
<symbol id="icon-arrow-down" viewBox="0 0 53 32">
<path stroke-linejoin="round" stroke-linecap="round" stroke-miterlimit="4" stroke-width="7.4453" d="M5.52 6.853l19.851 19.851 19.845-19.851"></path>
</symbol>
<symbol id="icon-wallet" viewBox="0 0 32 32">
<path fill="none" stroke="#936dff" style="stroke: var(--color2, #936dff)" stroke-linejoin="round" stroke-linecap="round" stroke-miterlimit="4" stroke-width="1.86" d="M17.020 4.518l-0.040 0.086-3.596 8.35h-3.536c-0.842 0-1.65 0.172-2.38 0.482l2.17-5.184 0.050-0.124 0.086-0.2c0.024-0.074 0.050-0.148 0.086-0.21 1.626-3.76 3.462-4.614 7.16-3.2z"></path>
<path fill="none" stroke="#936dff" style="stroke: var(--color2, #936dff)" stroke-linejoin="round" stroke-linecap="round" stroke-miterlimit="4" stroke-width="1.86" d="M23.704 13.2c-0.507-0.158-1.090-0.248-1.694-0.248-0.020 0-0.039 0-0.059 0l0.003-0h-8.572l3.636-8.434c0.186 0.060 0.36 0.148 0.546 0.222l2.74 1.154c1.526 0.634 2.594 1.29 3.24 2.084 0.122 0.15 0.22 0.286 0.308 0.448 0.112 0.172 0.2 0.346 0.248 0.532 0.050 0.112 0.088 0.224 0.112 0.324 0.336 1.040 0.136 2.32-0.508 3.92z"></path>
<path fill="none" stroke="#936dff" style="stroke: var(--color2, #936dff)" stroke-linejoin="round" stroke-linecap="round" stroke-miterlimit="4" stroke-width="1.86" d="M28.010 19.006v2.42c0 0.248-0.012 0.496-0.024 0.744-0.236 4.33-2.656 6.512-7.244 6.512h-9.676c-0.3 0-0.596-0.024-0.88-0.060-3.946-0.262-6.054-2.37-6.316-6.316-0.037-0.263-0.059-0.569-0.060-0.879v-2.421c0-2.492 1.512-4.64 3.67-5.57 0.744-0.31 1.54-0.482 2.382-0.482h12.108c0.608 0 1.202 0.086 1.748 0.248 2.503 0.789 4.288 3.087 4.292 5.804v0z"></path>
<path fill="none" stroke="#936dff" style="stroke: var(--color2, #936dff)" stroke-linejoin="round" stroke-linecap="round" stroke-miterlimit="4" stroke-width="1.86" d="M9.638 8.252l-2.172 5.186c-2.175 0.953-3.669 3.086-3.672 5.568v0-3.634c0-0.001 0-0.002 0-0.003 0-3.508 2.489-6.434 5.797-7.109l0.047-0.008zM28.008 15.372v3.634c0-0 0-0.001 0-0.002 0-2.715-1.787-5.012-4.249-5.779l-0.043-0.011c0.646-1.612 0.832-2.878 0.52-3.932-0.026-0.123-0.064-0.231-0.114-0.332l0.004 0.008c2.325 1.232 3.882 3.636 3.882 6.404 0 0.003 0 0.007 0 0.010v-0.001z"></path>
</symbol>
<symbol id="icon-money" viewBox="0 0 32 32">
<path fill="none" stroke="#22c55e" style="stroke: var(--color1, #22c55e)" stroke-linejoin="round" stroke-linecap="round" stroke-miterlimit="10" stroke-width="1.86" d="M22.402 26.762h-12.402c-3.722 0-6.204-1.86-6.204-6.202v-8.684c0-4.34 2.482-6.202 6.204-6.202h12.4c3.72 0 6.202 1.86 6.202 6.202v8.684c0 4.34-2.48 6.202-6.2 6.202z"></path>
<path fill="none" stroke="#22c55e" style="stroke: var(--color1, #22c55e)" stroke-linejoin="round" stroke-linecap="round" stroke-miterlimit="10" stroke-width="1.86" d="M16.2 19.94c2.056 0 3.722-1.666 3.722-3.722s-1.666-3.722-3.722-3.722v0c-2.056 0-3.722 1.666-3.722 3.722s1.666 3.722 3.722 3.722v0zM8.14 13.116v6.2M24.264 13.116v6.2"></path>
</symbol>
<symbol id="icon-salad" viewBox="0 0 26 26">
<path fill="#85C949"  d="M5.699 14.056c0.002 0.233-0.221 0.423-0.497 0.425s-0.501-0.185-0.503-0.418c-0.002-0.233 0.221-0.423 0.497-0.425s0.501 0.185 0.503 0.418z"></path>
<path fill="#85C949" d="M4.381 15.119c0.002 0.233-0.221 0.423-0.497 0.425s-0.501-0.185-0.503-0.418c-0.002-0.233 0.221-0.423 0.497-0.425s0.501 0.185 0.503 0.418z"></path>
<path fill="#85C949" d="M6.334 15.528c0.002 0.233-0.221 0.423-0.497 0.425s-0.501-0.185-0.503-0.418c-0.002-0.233 0.221-0.423 0.497-0.425s0.501 0.185 0.503 0.418z"></path>
<path fill="#E5EB44" d="M9.628 17.862c0.612 0.409 1.364 0.654 2.173 0.656h0.001c0.247-0 0.489-0.023 0.723-0.068l-0.024 0.004c1.005-0.18 1.849-0.756 2.38-1.558l0.008-0.013c0.023-0.036 0.041-0.077 0.052-0.122l0.001-0.003c0.002-0.008 0.005-0.015 0.007-0.023 0.002-0.014 0.004-0.030 0.004-0.046v-0.001c0-0.010 0.002-0.020 0.002-0.030 0-0.012-0.003-0.023-0.004-0.034-0.001-0.016-0.003-0.030-0.005-0.044l0 0.002c-0.001-0.003-0.002-0.005-0.003-0.008-0.024-0.103-0.085-0.189-0.169-0.244l-0.001-0.001-5.804-3.795c-0.020-0.014-0.044-0.026-0.069-0.036l-0.003-0.001c-0.008-0.003-0.017-0.005-0.025-0.007-0.014-0.005-0.030-0.010-0.048-0.014l-0.003-0c-0.006-0.001-0.013-0.001-0.020-0.002-0.018-0.003-0.038-0.005-0.058-0.005-0.044 0-0.086 0.009-0.125 0.024l0.002-0.001c-0.009 0.003-0.018 0.005-0.027 0.009-0.011 0.005-0.021 0.011-0.032 0.017-0.015 0.007-0.027 0.014-0.038 0.021l0.002-0.001c-0.010 0.007-0.018 0.015-0.027 0.022-0.012 0.009-0.023 0.018-0.033 0.028l0-0c-0.018 0.018-0.035 0.039-0.049 0.060l-0.001 0.002c-1.116 1.707-0.572 4.045 1.212 5.211zM13.977 16.764c-0.33 0.37-0.753 0.65-1.233 0.804l-0.020 0.005-0.454-1.925zM11.935 17.712c-0.039 0.002-0.084 0.003-0.13 0.003-0.506 0-0.984-0.12-1.408-0.334l0.018 0.008 1.061-1.623zM8.891 13.439l1.705 1.114-1.942 0.356c-0.011-0.091-0.017-0.197-0.017-0.304 0-0.423 0.094-0.824 0.261-1.184l-0.007 0.017zM10.807 15.328l-1.061 1.623c-0.395-0.334-0.704-0.758-0.897-1.241l-0.007-0.021z"></path>
<path fill="#B78442" d="M23.919 15.333c0.020 0.125 0.031 0.268 0.031 0.415 0 0.158-0.013 0.313-0.038 0.464l0.002-0.016c0.578 0.277 0.886 0.557 0.886 0.807 0 0.978-4.675 2.399-12 2.399s-12-1.421-12-2.399c0-0.239 0.282-0.505 0.812-0.77-0.144-0.2-0.264-0.431-0.347-0.678l-0.005-0.018c-0.796 0.416-1.26 0.905-1.26 1.467 0 0.6 0.528 1.118 1.428 1.553-0.002 0.014-0.004 0.030-0.005 0.046l-0 0.001c0 2.1 5.723 3.199 11.377 3.199s11.377-1.099 11.377-3.199c-0.001-0.017-0.002-0.033-0.005-0.049l0 0.002c0.9-0.434 1.428-0.953 1.428-1.553 0-0.655-0.626-1.212-1.681-1.669zM12.8 21c-5.856 0-9.689-1.116-10.439-2.068 2.444 0.838 6.457 1.268 10.439 1.268s7.995-0.431 10.439-1.268c-0.75 0.952-4.583 2.068-10.439 2.068zM6.919 14.446c0.008-0.294 0.043-0.574 0.103-0.845l-0.005 0.030c-0.234 0.006-0.424 0.188-0.442 0.418l-0 0.002c0.014 0.196 0.155 0.355 0.342 0.395l0.003 0.001z"></path>
<path fill="#618D3B" d="M5.911 17.206h0.047c0.581-0.002 1.144-0.081 1.678-0.227l-0.045 0.011c-0.127-0.208-0.247-0.449-0.347-0.701l-0.011-0.033c-0.384 0.095-0.825 0.15-1.279 0.151h-0.001l-0.041 0c-1.864 0-3.165-0.841-3.17-1.603-0.005-0.768 1.303-1.633 3.189-1.646h0.041c0.003 0 0.006 0 0.009 0 0.399 0 0.789 0.041 1.165 0.12l-0.037-0.006c0.089-0.291 0.193-0.541 0.318-0.777l-0.012 0.024c-0.43-0.102-0.923-0.16-1.43-0.16-0.005 0-0.009 0-0.014 0h0.001l-0.047 0c-2.243 0.015-3.993 1.091-3.984 2.451 0.009 1.35 1.749 2.397 3.97 2.397zM15.838 16.408c0.009 0.038 0.015 0.072 0.020 0.106 0.001 0.003 0 0.007 0.001 0.010 0.127 0.080 0.274 0.149 0.428 0.2l0.014 0.004c0.178 0.057 0.382 0.090 0.594 0.090 1.108 0 2.007-0.898 2.007-2.007 0-0.654-0.313-1.236-0.798-1.602l-0.005-0.004c-0.188-0.929-0.999-1.619-1.97-1.619-0.548 0-1.044 0.219-1.406 0.575l0-0c-1.009 0.042-1.823 0.825-1.914 1.817l-0.001 0.008 0.853 0.558c-0.038-0.113-0.061-0.243-0.061-0.378 0-0.666 0.54-1.206 1.206-1.206 0.098 0 0.192 0.012 0.283 0.033l-0.008-0.002c0.213-0.364 0.601-0.604 1.046-0.604 0.667 0 1.208 0.541 1.208 1.208 0 0.032-0.001 0.064-0.004 0.096l0-0.004c0.454 0.18 0.77 0.616 0.77 1.125 0 0.667-0.541 1.207-1.207 1.207-0.607 0-1.109-0.448-1.195-1.031l-0.001-0.007c-0.196 0.213-0.467 0.356-0.771 0.387l-0.005 0 0.334 0.219c0.287 0.188 0.496 0.475 0.578 0.812l0.002 0.009zM8.773 8.816c-0.068-0.13-0.202-0.218-0.356-0.218-0.221 0-0.4 0.179-0.4 0.4 0 0.064 0.015 0.125 0.042 0.179l-0.001-0.002 1.279 2.55c0.040 0.021 0.079 0.044 0.118 0.069l1.31 0.856 2.815-0.798c0.169-0.049 0.291-0.203 0.291-0.385 0-0.221-0.179-0.4-0.4-0.4-0.039 0-0.076 0.006-0.112 0.016l0.003-0.001-2.378 0.674c0.2-0.35 0.438-0.82 0.659-1.299l0.055-0.132 1.866-0.983c0.131-0.067 0.219-0.202 0.219-0.357 0-0.221-0.179-0.4-0.4-0.4-0.071 0-0.137 0.018-0.194 0.050l0.002-0.001-1.001 0.528c0.399-1.018 0.605-1.745 0.63-1.836 0.009-0.031 0.013-0.066 0.013-0.103 0-0.221-0.179-0.4-0.4-0.4-0.181 0-0.335 0.121-0.384 0.286l-0.001 0.003c-0.252 0.844-0.499 1.522-0.78 2.184l0.052-0.139-0.895-1.505c-0.071-0.116-0.198-0.192-0.341-0.192-0.221 0-0.4 0.179-0.4 0.4 0 0.074 0.020 0.143 0.055 0.202l-0.001-0.002 1.19 2.001c-0.223 0.486-0.48 1-0.771 1.515zM16.769 10.863c0.064 0.015 0.127 0.032 0.189 0.051 0.233 0.073 0.435 0.166 0.623 0.279l-0.013-0.007c-0.003-0.054-0.004-0.116-0.004-0.18 0-0.592 0.134-1.154 0.373-1.655l-0.010 0.023c0.482-1.006 1.434-1.781 2.833-2.308 0.367 1.558 0.264 2.724-0.31 3.469-0.304 0.378-0.722 0.654-1.202 0.777l-0.016 0.003 0.617-1.646c0.016-0.042 0.025-0.090 0.025-0.14 0-0.221-0.179-0.4-0.4-0.4-0.171 0-0.316 0.107-0.374 0.257l-0.001 0.003-0.855 2.279c-0.007 0.020-0.013 0.043-0.016 0.067l-0 0.002c0.123 0.137 0.234 0.289 0.329 0.452l0.007 0.013c0.014 0.003 0.030 0.005 0.047 0.007l0.001 0c0.060-0.001 1.54 0.015 2.463-1.175 0.787-1.015 0.907-2.55 0.356-4.563-0.037-0.187-0.2-0.326-0.395-0.326-0.061 0-0.119 0.014-0.17 0.038l0.002-0.001c-1.812 0.596-3.045 1.554-3.665 2.849-0.26 0.536-0.419 1.164-0.436 1.827l-0 0.006z"></path>
<path fill="#85C949" d="M19.605 17.026c0.371 0.442 0.923 0.721 1.54 0.721 1.108 0 2.006-0.898 2.006-2.006 0-0.654-0.313-1.236-0.798-1.602l-0.005-0.004c-0.187-0.929-0.997-1.619-1.968-1.619-0.511 0-0.976 0.191-1.33 0.505l0.002-0.002c0.169 0.202 0.312 0.433 0.42 0.682l0.007 0.018c0.222-0.248 0.543-0.403 0.9-0.403 0.666 0 1.206 0.54 1.206 1.206 0 0.033-0.001 0.065-0.004 0.097l0-0.004c0.454 0.18 0.77 0.616 0.77 1.125 0 0.667-0.541 1.207-1.207 1.207-0.607 0-1.109-0.448-1.195-1.031l-0.001-0.007c-0.17 0.185-0.396 0.316-0.65 0.368l-0.008 0.001c-0.185 0.301-0.415 0.554-0.683 0.76l-0.007 0.005c0.141 0.037 0.302 0.059 0.468 0.059 0.191 0 0.375-0.028 0.549-0.080l-0.013 0.003zM7.823 6.354c0.177 0 0.421 0.144 0.678 0.144 0.288 0 0.592-0.18 0.835-0.945 0.052-0.165 0.121-0.221 0.202-0.221 0.167 0 0.386 0.235 0.629 0.235 0.196 0 0.407-0.153 0.618-0.706 0.072-0.189 0.155-0.261 0.248-0.261 0.304 0 0.709 0.775 1.137 0.775 0.078-0.001 0.15-0.026 0.21-0.068l-0.001 0.001c0.071-0.055 0.159-0.090 0.255-0.097l0.001-0c0.548 0 0.437 1.695 1.575 1.695 0.024 0 0.050-0.001 0.075-0.002s0.056-0.003 0.086-0.003h0c0.852 0-0.086 0.938 0.794 1.798 0.908 0.886-1.259 1.227-0.305 2.025 0.096 0.071 0.176 0.158 0.237 0.257l0.002 0.004c0.229-0.094 0.495-0.16 0.772-0.185l0.011-0.001c-0.064-0.197-0.169-0.366-0.306-0.503l-0-0c0.257-0.247 0.615-0.612 0.617-1.159-0.009-0.402-0.187-0.762-0.467-1.009l-0.001-0.001c-0.183-0.179-0.183-0.313-0.167-0.628 0.011-0.063 0.017-0.135 0.017-0.209 0-0.322-0.116-0.618-0.308-0.847l0.002 0.002c-0.214-0.213-0.509-0.345-0.835-0.345-0.022 0-0.043 0.001-0.064 0.002l0.003-0h-0c-0.043 0-0.088 0.001-0.136 0.004-0.008 0-0.016 0.001-0.025 0.001 0 0-0 0-0 0v0c-0.091 0-0.164-0.083-0.36-0.572-0.168-0.42-0.45-1.122-1.215-1.122-0.157 0.001-0.306 0.033-0.442 0.091l0.007-0.003c-0.044-0.042-0.090-0.089-0.125-0.124-0.253-0.257-0.569-0.576-1.042-0.576-0.211 0-0.729 0.076-0.996 0.776q-0.014 0.037-0.027 0.068c-0.138-0.069-0.3-0.11-0.472-0.112h-0.001c-0.469 0.006-0.86 0.334-0.963 0.772l-0.001 0.007c-0.041 0.14-0.094 0.262-0.158 0.376l0.005-0.009c-0.027-0.008-0.056-0.017-0.080-0.025-0.153-0.057-0.33-0.093-0.514-0.099l-0.003-0c-0.163 0-0.978 0.056-1.065 1.166-0.004 0.056-0.008 0.111-0.011 0.165-0.003 0.061-0.006 0.105-0.010 0.148l0.001-0.022c-0.068 0.011-0.149 0.019-0.231 0.021l-0.002 0c-0.603 0.020-0.883 0.31-1.011 0.55-0.286 0.534 0.016 1.057 0.238 1.416-0.164 0.209-0.262 0.475-0.262 0.765 0 0.071 0.006 0.141 0.017 0.209l-0.001-0.007c-0.751 0.507-0.637 1.282-0.576 1.667 0.231-0.034 0.507-0.058 0.786-0.068l0.012-0c-0.060-0.387-0.128-0.713 0.251-0.953 0.723-0.457-0.050-0.983 0.591-1.222s-1.077-1.522-0.019-1.557 0.979-0.492 1.023-1.048c0.026-0.336 0.125-0.429 0.267-0.429z"></path>
</symbol>
<symbol id="icon-checkmark" viewBox="0 0 32 32">
<path d="M27 4l-15 15-7-7-5 5 12 12 20-20z"></path>
</symbol>
<symbol id="icon-cool" viewBox="0 0 32 32">
<path d="M16 32c8.837 0 16-7.163 16-16s-7.163-16-16-16-16 7.163-16 16 7.163 16 16 16zM16 3c7.18 0 13 5.82 13 13s-5.82 13-13 13-13-5.82-13-13 5.82-13 13-13zM25 8c0.55 0 1 0.45 1 1v3c0 1.1-0.9 2-2 2h-4c-1.1 0-2-0.9-2-2h-4c0 1.1-0.9 2-2 2h-4c-1.1 0-2-0.9-2-2v-3c0-0.55 0.45-1 1-1h6c0.55 0 1 0.45 1 1v1h4v-1c0-0.55 0.45-1 1-1h6zM16 24c2.913 0 5.462-1.557 6.861-3.884l1.715 1.029c-1.749 2.908-4.935 4.855-8.576 4.855-1.514 0-2.95-0.337-4.236-0.94l1.036-1.727c0.98 0.429 2.061 0.668 3.199 0.668z"></path>
</symbol>
<symbol id="icon-confused" viewBox="0 0 32 32">
<path  d="M16 32c8.837 0 16-7.163 16-16s-7.163-16-16-16-16 7.163-16 16 7.163 16 16 16zM16 3c7.18 0 13 5.82 13 13s-5.82 13-13 13-13-5.82-13-13 5.82-13 13-13zM8 10c0-1.105 0.895-2 2-2s2 0.895 2 2c0 1.105-0.895 2-2 2s-2-0.895-2-2zM20 10c0-1.105 0.895-2 2-2s2 0.895 2 2c0 1.105-0.895 2-2 2s-2-0.895-2-2zM22.691 20h2.027c0.289 2.266-1.014 4.517-3.249 5.33-2.591 0.943-5.466-0.397-6.409-2.988-0.566-1.555-2.291-2.359-3.845-1.793-1.424 0.518-2.217 2.009-1.906 3.451h-2.027c-0.289-2.266 1.014-4.517 3.249-5.33 2.591-0.943 5.466 0.397 6.409 2.988 0.566 1.555 2.291 2.359 3.845 1.793 1.424-0.518 2.217-2.009 1.906-3.451z"></path>
</symbol>
<symbol id="icon-search" viewBox="0 0 32 32">
<path d="M31.008 27.231l-7.58-6.447c-0.784-0.705-1.622-1.029-2.299-0.998 1.789-2.096 2.87-4.815 2.87-7.787 0-6.627-5.373-12-12-12s-12 5.373-12 12 5.373 12 12 12c2.972 0 5.691-1.081 7.787-2.87-0.031 0.677 0.293 1.515 0.998 2.299l6.447 7.58c1.104 1.226 2.907 1.33 4.007 0.23s0.997-2.903-0.23-4.007zM12 20c-4.418 0-8-3.582-8-8s3.582-8 8-8 8 3.582 8 8-3.582 8-8 8z"></path>
</symbol>
<symbol id="icon-coupon" viewBox="0 0 43 32">
<path d="M4.891 31.874c-1.861 0-3.369-1.509-3.369-3.371v-23.115c0-1.863 1.509-3.371 3.369-3.371h34.574c2.030 0 3.15 2.357 1.865 3.931l-3.474 4.256 4.261 5.218c0.725 0.887 0.725 2.16 0 3.047l-4.261 5.218 3.474 4.258c1.285 1.573 0.165 3.931-1.865 3.931h-34.574zM4.411 28.503c0 0.267 0.215 0.482 0.48 0.482h33.559l-3.081-3.774c-0.338-0.411-0.544-0.943-0.544-1.523s0.205-1.112 0.547-1.528l-0.003 0.004 4.261-5.218-4.261-5.221c-0.338-0.411-0.544-0.943-0.544-1.523s0.205-1.112 0.547-1.528l-0.003 0.004 3.081-3.774h-33.559c-0.265 0-0.48 0.215-0.48 0.48v0 23.118z"></path>
<path d="M14.523 26.091c-0.798 0-1.445-0.647-1.445-1.445v0-15.413c0-0.798 0.647-1.446 1.446-1.446s1.446 0.647 1.446 1.446v0 15.413c0 0.8-0.647 1.447-1.447 1.447zM20.304 26.091c-0.798 0-1.445-0.647-1.445-1.445v0-15.413c0-0.798 0.647-1.445 1.445-1.445s1.445 0.647 1.445 1.445v15.413c0 0.8-0.647 1.447-1.445 1.447zM26.082 26.091c-0.798 0-1.445-0.647-1.445-1.445v0-15.413c0-0.798 0.647-1.445 1.445-1.445s1.445 0.647 1.445 1.445v15.413c0 0.8-0.647 1.447-1.445 1.447z"></path>
</symbol>
<symbol id="icon-tick" viewBox="0 0 32 32">
<path fill="#6c5fbc" style="fill: var(--color1, #6c5fbc)" d="M31.859 15.929c0 8.797-7.132 15.929-15.929 15.929s-15.929-7.132-15.929-15.929c0-8.797 7.132-15.929 15.929-15.929s15.929 7.132 15.929 15.929z"></path>
<path fill="none" stroke="#f9f9f9" style="stroke: var(--color2, #f9f9f9)" stroke-linejoin="round" stroke-linecap="round" stroke-miterlimit="4" stroke-width="3.3448" d="M9.103 15.778l4.854 4.854 9.709-9.709"></path>
</symbol>
<symbol id="icon-cross" viewBox="0 0 32 32">
<path fill="#eb3f5e" style="fill: var(--color1, #eb3f5e)" d="M30.991 16.3c0 8.459-6.857 15.316-15.316 15.316s-15.316-6.857-15.316-15.316c0-8.459 6.857-15.316 15.316-15.316s15.316 6.857 15.316 15.316z"></path>
<path fill="#f9f9f9" style="fill: var(--color2, #f9f9f9)" d="M10.574 22.87c-0.002 0-0.003 0-0.005 0-0.404 0-0.769-0.165-1.032-0.431l-0-0c-0.263-0.267-0.426-0.633-0.426-1.038s0.163-0.771 0.426-1.038l11.077-11.077c0.267-0.263 0.633-0.426 1.038-0.426s0.771 0.163 1.038 0.426l-0-0c0.263 0.267 0.425 0.633 0.425 1.037s-0.162 0.77-0.425 1.037l-11.077 11.077c-0.274 0.295-0.665 0.431-1.038 0.431z"></path>
<path fill="#f9f9f9" style="fill: var(--color2, #f9f9f9)" d="M21.65 22.87c-0.001 0-0.003 0-0.004 0-0.404 0-0.769-0.165-1.032-0.431l-11.077-11.077c-0.263-0.267-0.426-0.633-0.426-1.038s0.163-0.771 0.426-1.038l-0 0c0.267-0.263 0.633-0.425 1.037-0.425s0.77 0.162 1.037 0.425l11.077 11.077c0.263 0.267 0.426 0.633 0.426 1.038s-0.163 0.771-0.426 1.038l0-0c-0.263 0.266-0.629 0.431-1.032 0.431-0.002 0-0.004 0-0.006 0h0z"></path>
</symbol>
<symbol id="icon-stars-contact" viewBox="0 0 17 32">
<path fill="none" stroke="#aa9cff" style="stroke: var(--color1, #aa9cff)" stroke-linejoin="round" stroke-linecap="round" stroke-miterlimit="1.5" stroke-width="1.8102" d="M6.673 26.097c-0.889 1.546-1.988 3.005-3.039 4.442-0.919-1.507-1.783-3.050-2.681-4.568 1.105-1.553 1.92-3.351 2.718-5.076 1.229 1.831 2.23 3.596 3.001 5.202z"></path>
<path fill="none" stroke="#a597ff" style="stroke: var(--color2, #a597ff)" stroke-linejoin="round" stroke-linecap="round" stroke-miterlimit="1.5" stroke-width="1.5658" d="M13.446 10.202c0.044-1.466-0.633-2.929-2.117-3.812-0.575-0.342-1.255-0.466-1.927-0.569 2.724-0.083 3.67-2.597 4.049-4.544-0.132 1.745 0.903 3.632 3.018 3.806-2.105 1.092-2.828 3.097-3.024 5.12z"></path>
</symbol>
</defs>
</svg>
