<svg aria-hidden="true" style="position: absolute; width: 0; height: 0; overflow: hidden;" version="1.1" xmlns="http://www.w3.org/2000/svg" xmlns:xlink="http://www.w3.org/1999/xlink">
<defs>
<symbol id="icon-menu" viewBox="0 0 44 32">
<path fill="#918f8f" style="fill: var(--color1, #918f8f)" d="M1.6 1.28v0z"></path>
<path fill="none" stroke="#282828" style="stroke: var(--color2, #282828)" stroke-linejoin="miter" stroke-linecap="round" stroke-miterlimit="4" stroke-width="2.56" d="M1.6 1.28h40.32"></path>
<path fill="#918f8f" style="fill: var(--color1, #918f8f)" d="M1.6 15.569v0z"></path>
<path fill="none" stroke="#282828" style="stroke: var(--color2, #282828)" stroke-linejoin="miter" stroke-linecap="round" stroke-miterlimit="4" stroke-width="2.56" d="M1.6 15.569h40.32"></path>
<path fill="#918f8f" style="fill: var(--color1, #918f8f)" d="M1.6 29.857v0z"></path>
<path fill="none" stroke="#282828" style="stroke: var(--color2, #282828)" stroke-linejoin="miter" stroke-linecap="round" stroke-miterlimit="4" stroke-width="2.56" d="M1.6 29.857h40.32"></path>
</symbol>
<symbol id="icon-hero-top" viewBox="0 0 72 32">
<path fill="none" opacity="0.2" stroke="#a596ff" style="stroke: var(--color1, #a596ff)" stroke-linejoin="miter" stroke-linecap="round" stroke-miterlimit="4" stroke-width="0.7744" d="M141.471-32.585c-5.659-2.415-10.858-5.209-17.309-6.351-4.608-0.816-9.348-0.758-14.131 0.387-8.918 2.135-17.761 5.597-25.3 10.424-7.704 4.931-15.923 9.616-22.392 15.717-6.014 5.673-11.368 11.976-17.724 17.389-10.65 9.069-25.315 13.787-39.185 17.452-7.338 1.939-14.713 3.839-22.092 5.61-4.631 1.112-9.48 1.817-13.933 3.48"></path>
<path fill="none" opacity="0.2" stroke="#a596ff" style="stroke: var(--color1, #a596ff)" stroke-linejoin="miter" stroke-linecap="round" stroke-miterlimit="4" stroke-width="0.7744" d="M141.311-41.276c-6.115-2.608-11.731-5.624-18.702-6.857-4.978-0.88-10.1-0.817-15.268 0.42-9.636 2.307-19.191 6.048-27.337 11.261-8.324 5.327-17.206 10.388-24.196 16.978-6.498 6.127-12.285 12.936-19.153 18.783-11.508 9.797-27.354 14.894-42.34 18.854-7.928 2.095-15.897 4.148-23.87 6.062-5.003 1.201-10.243 1.963-15.055 3.76"></path>
</symbol>
<symbol id="icon-hero-bottom" viewBox="0 0 18 32">
<path fill="none" opacity="0.2" stroke="#a596ff" style="stroke: var(--color1, #a596ff)" stroke-linejoin="miter" stroke-linecap="round" stroke-miterlimit="4" stroke-width="0.4415" d="M21.94 0.275c-1.982 1.244-4.226 2.414-6.023 3.892-1.759 1.445-3.441 3.306-4.756 5.038-2.424 3.192-2.962 6.22-3.134 9.595-0.283 5.569 1.088 10.506 3.421 15.224 1.545 3.124 3.218 6.143 5.108 9.080 0.577 0.897 1.074 2.004 2.181 2.471"></path>
<path fill="none" opacity="0.2" stroke="#a596ff" style="stroke: var(--color1, #a596ff)" stroke-linejoin="miter" stroke-linecap="round" stroke-miterlimit="4" stroke-width="0.4415" d="M27.271 0.386c-2.041 1.281-4.352 2.487-6.204 4.008-1.812 1.489-3.544 3.405-4.898 5.189-2.496 3.288-3.050 6.407-3.226 9.883-0.291 5.737 1.122 10.822 3.525 15.684 1.591 3.218 3.316 6.328 5.262 9.354 0.594 0.924 1.106 2.064 2.247 2.545"></path>
</symbol>
<symbol id="icon-Logo-eatly" viewBox="0 0 35 32">
<path fill="#6c5fbc" style="fill: var(--color1, #6c5fbc)" d="M7.931 3.711h21.11c2.868 0 5.194 2.325 5.194 5.194v17.435c0 2.868-2.325 5.194-5.194 5.194h-21.11c-2.868 0-5.194-2.325-5.194-5.194v-17.436c0-2.868 2.325-5.194 5.194-5.194z"></path>
<path fill="#dbd9ee" style="fill: var(--color2, #dbd9ee); stroke: var(--color1, #6c5fbc)" stroke="#6c5fbc" stroke-linejoin="miter" stroke-linecap="butt" stroke-miterlimit="4" stroke-width="1.5015" d="M5.194 0.751h21.11c2.454 0 4.443 1.989 4.443 4.443v17.435c0 2.454-1.989 4.443-4.443 4.443h-21.11c-2.454 0-4.443-1.989-4.443-4.443v-17.435c0-2.454 1.989-4.443 4.443-4.443z"></path>
<path fill="none" stroke="#6c5fbc" style="stroke: var(--color1, #6c5fbc)" stroke-linejoin="round" stroke-linecap="round" stroke-miterlimit="4" stroke-width="1.5532" d="M24.311 8.98l-17.066-0.075"></path>
<path fill="none" stroke="#6c5fbc" style="stroke: var(--color1, #6c5fbc)" stroke-linejoin="round" stroke-linecap="round" stroke-miterlimit="4" stroke-width="1.5532" d="M24.302 12.397l-3.797-0.019c-1.571-0.008-2.841-1.544-2.836-3.429s1.284-3.409 2.855-3.401l3.797 0.019"></path>
<path fill="none" stroke="#6c5fbc" style="stroke: var(--color1, #6c5fbc)" stroke-linejoin="round" stroke-linecap="round" stroke-miterlimit="4" stroke-width="1.5532" d="M12.938 19.912l-4.96-0.058c-0.406-0.002-0.747-0.403-0.755-0.89l-0.033-1.286c-0.008-0.51 0.335-0.94 0.76-0.938l4.904 0.058 0.084 3.115z"></path>
<path fill="none" stroke="#6c5fbc" style="stroke: var(--color1, #6c5fbc)" stroke-linejoin="round" stroke-linecap="round" stroke-miterlimit="4" stroke-width="1.5532" d="M20.727 21.765l-7.010-0.091c-0.406-0.002-0.747-0.403-0.755-0.89l-0.091-4 11.388 0.146 0.008 0.51c0.058 2.416-1.536 4.357-3.54 4.325z"></path>
</symbol>
<symbol id="icon-facebook-footer" viewBox="0 0 16 32">
<path d="M14.382 15.941h-4.454v15.941h-6.642v-15.941h-3.126v-5.626h3.126v-3.673c0-2.579 1.25-6.642 6.642-6.642h4.923v5.47h-3.516c-0.547 0-1.407 0.313-1.407 1.563v3.282h5.001l-0.547 5.626z"></path>
</symbol>
<symbol id="icon-linkedin-footer" viewBox="0 0 34 32">
<path d="M32.16 18.648v11.773h-6.875v-11c0-2.75-0.945-4.641-3.438-4.641-1.89 0-3.008 1.289-3.523 2.492-0.172 0.43-0.258 1.031-0.258 1.633v11.515h-6.875c0 0 0.086-18.648 0-20.539h6.875v2.922c0 0 0 0.086-0.086 0.086h0.086v-0.086c0.945-1.375 2.492-3.437 6.188-3.437 4.469 0 7.906 3.008 7.906 9.281zM4.144 0c-2.32 0-3.867 1.547-3.867 3.523s1.461 3.523 3.781 3.523h0.086c2.406 0 3.867-1.547 3.867-3.523-0.086-1.977-1.547-3.523-3.867-3.523zM0.621 30.421h6.789v-20.539h-6.789v20.539z"></path>
</symbol>
<symbol id="icon-instagram-footer" viewBox="0 0 34 32">
<path d="M16.26 0c2.121 0.076 4.318 0.076 6.439 0.151 1.894 0.076 3.636 0.379 5.302 1.363 2.121 1.288 3.409 3.182 3.863 5.605 0.227 1.439 0.303 2.954 0.379 4.394 0.076 3.181 0 6.363 0 9.544 0 1.666-0.076 3.333-0.606 4.924-1.060 3.106-3.257 4.999-6.439 5.605-1.439 0.303-2.954 0.303-4.393 0.379-3.182 0.076-6.287 0-9.469 0-1.667 0-3.333-0.076-4.924-0.606-3.106-1.061-5-3.257-5.606-6.439-0.303-1.439-0.303-2.954-0.379-4.393-0.076-3.182 0-6.363 0-9.544 0-1.666 0.076-3.333 0.606-4.924 1.060-3.106 3.257-4.999 6.439-5.605 1.439-0.303 2.954-0.303 4.394-0.379s2.878-0.076 4.393-0.076zM29.364 15.681c-0.076 0 0 0 0 0-0.076-1.288-0.076-2.5-0.076-3.787 0-1.212-0.076-2.424-0.227-3.636-0.303-2.727-1.894-4.545-4.545-5.075-1.363-0.303-2.878-0.303-4.242-0.303-2.727-0.076-5.378-0.076-8.105 0-1.364 0-2.727 0.076-4.015 0.303-2.272 0.379-3.863 1.667-4.545 3.939-0.227 0.758-0.303 1.515-0.379 2.272-0.076 2.879-0.076 5.757-0.076 8.635 0 1.818 0.076 3.712 0.227 5.53 0.227 2.727 1.894 4.621 4.621 5.075 1.363 0.227 2.803 0.303 4.242 0.303 2.651 0.076 5.303 0 8.029 0 1.212 0 2.424-0.076 3.636-0.227 1.136-0.076 2.197-0.455 3.106-1.212 1.515-1.212 2.045-2.803 2.121-4.621 0.152-2.272 0.152-4.696 0.227-7.196z"></path>
<path d="M24.44 15.982c0 4.545-3.636 8.181-8.181 8.181s-8.181-3.636-8.181-8.257c0-4.469 3.712-8.105 8.257-8.105 4.469 0 8.105 3.636 8.105 8.181zM16.26 21.286c2.878 0 5.302-2.424 5.302-5.302s-2.424-5.302-5.302-5.302c-2.954 0-5.303 2.424-5.303 5.302-0.076 2.878 2.348 5.302 5.303 5.302z"></path>
<path d="M26.638 7.423c0 1.061-0.833 1.97-1.894 1.97s-1.969-0.909-1.894-1.97c0-1.060 0.833-1.894 1.894-1.894s1.894 0.833 1.894 1.894z"></path>
</symbol>
<symbol id="icon-twitter-footer" viewBox="0 0 39 32">
<path d="M37.499 4.247c-1.372 0.6-2.744 1.029-4.287 1.2 1.543-0.943 2.744-2.401 3.258-4.115-1.457 0.857-3.086 1.457-4.715 1.8-1.372-1.457-3.344-2.401-5.487-2.401-4.115 0-7.459 3.344-7.459 7.459 0 0.6 0.086 1.2 0.171 1.715-6.259-0.343-11.746-3.258-15.432-7.802-0.686 1.115-1.029 2.401-1.029 3.772 0 2.572 1.286 4.887 3.344 6.259-1.2 0-2.401-0.343-3.429-0.943v0.086c0 3.601 2.572 6.687 6.001 7.373-0.6 0.171-1.286 0.257-1.972 0.257-0.514 0-0.943-0.086-1.372-0.171 0.943 3.001 3.687 5.144 7.030 5.23-2.572 1.972-5.744 3.172-9.259 3.172-0.6 0-1.2 0-1.8-0.086 3.344 2.143 7.202 3.344 11.488 3.344 13.803 0 21.262-11.402 21.262-21.262 0-0.343 0-0.686 0-0.943 1.457-1.114 2.743-2.486 3.686-3.944z"></path>
</symbol>
<symbol id="icon-plus" viewBox="0 0 32 32">
<path d="M32 14.945h-14.945v-14.945h-2.11v14.945h-14.945v2.11h14.945v14.945h2.11v-14.945h14.945z"></path>
</symbol>
<symbol id="icon-minus" viewBox="0 0 32 32">
<path d="M4 14h24v4h-24z"></path>
</symbol>
<symbol id="icon-close-order" viewBox="0 0 32 32">
<path d="M32 3.224l-3.224-3.224-12.776 12.776-12.776-12.776-3.224 3.224 12.776 12.776-12.776 12.776 3.224 3.224 12.776-12.776 12.776 12.776 3.224-3.224-12.776-12.776 12.776-12.776z"></path>
</symbol>
<symbol id="icon-basket" viewBox="0 0 32 32">
<path d="M1 1.219c-0.325 0.106-0.637 0.381-0.831 0.744-0.175 0.337-0.188 1.031-0.019 1.35 0.163 0.306 0.4 0.55 0.694 0.706 0.238 0.131 0.356 0.138 2.031 0.169 1.938 0.031 1.963 0.037 2.156 0.406 0.119 0.219 2.975 13.056 2.912 13.081-0.269 0.1-0.912 0.556-1.2 0.844-1.388 1.381-1.288 3.981 0.206 5.325 0.419 0.375 1.181 0.75 1.719 0.837 0.306 0.050 2.769 0.069 8.838 0.056l8.413-0.019 0.3-0.188c0.206-0.131 0.356-0.294 0.494-0.531 0.169-0.3 0.194-0.4 0.188-0.781-0.006-0.663-0.3-1.131-0.869-1.387-0.238-0.106-0.725-0.113-8.563-0.144-8.931-0.031-8.531-0.019-8.656-0.35-0.106-0.269-0.069-0.45 0.119-0.663l0.181-0.206 17.669-0.063 0.456-0.169c0.625-0.225 1.063-0.506 1.506-0.95 0.444-0.456 0.781-0.988 0.944-1.512 0.206-0.675 2.325-12.713 2.288-12.981-0.087-0.537-0.563-1.1-1.031-1.231-0.144-0.038-4.3-0.063-11.644-0.063h-11.419l-0.206-0.394c-0.419-0.788-1.337-1.519-2.3-1.831-0.475-0.15-3.931-0.2-4.375-0.056zM4.625 2.063c0.581 0.063 1.206 0.325 1.631 0.681 0.294 0.244 0.65 0.762 0.838 1.231l0.15 0.369 11.75 0.031c11.719 0.031 11.756 0.031 11.881 0.156 0.069 0.075 0.15 0.213 0.175 0.313 0.044 0.138-0.225 1.737-1.019 6.188-0.587 3.3-1.106 6.144-1.15 6.325-0.212 0.875-0.962 1.669-1.919 2.031l-0.369 0.144-8.813 0.031c-9.762 0.038-9.019 0-9.463 0.444-0.744 0.738-0.531 1.975 0.419 2.444l0.294 0.144 16.731 0.063 0.119 0.15c0.188 0.225 0.163 0.694-0.044 0.887l-0.163 0.15-8.225 0.019c-5.375 0.006-8.344-0.006-8.569-0.050-0.819-0.15-1.569-0.7-1.912-1.4-0.088-0.181-0.206-0.569-0.263-0.85-0.088-0.438-0.094-0.581-0.025-0.962 0.1-0.587 0.306-1.025 0.669-1.419 0.375-0.4 0.731-0.606 1.331-0.781 0.313-0.094 0.469-0.169 0.456-0.225-0.012-0.044-0.088-0.25-0.169-0.456s-0.781-3.256-1.563-6.781c-0.987-4.481-1.456-6.506-1.569-6.731-0.169-0.344-0.481-0.638-0.881-0.813-0.2-0.094-0.519-0.112-1.994-0.144-1.913-0.031-1.919-0.038-2.013-0.4-0.1-0.369 0.1-0.756 0.419-0.806 0.344-0.050 2.75-0.038 3.256 0.019z"></path>
<path d="M7.531 5.763c0.019 0.081 0.594 2.681 1.281 5.788 0.688 3.1 1.294 5.725 1.344 5.825 0.144 0.281 0.519 0.625 0.838 0.775l0.287 0.131h15.188l0.319-0.169c0.413-0.219 0.75-0.613 0.869-1.012 0.056-0.175 0.531-2.781 1.063-5.787s0.981-5.519 0.994-5.581c0.025-0.1-0.538-0.106-11.094-0.106h-11.119l0.031 0.138zM15.156 9.125v2.594l-2.694 0.019-2.694 0.012-0.569-2.581c-0.319-1.425-0.575-2.606-0.575-2.625 0-0.025 1.469-0.037 3.269-0.031l3.262 0.019v2.594zM21.75 9.125v2.625h-5.688v-5.25h5.688v2.625zM28.625 6.625c0 0.069-0.194 1.219-0.438 2.563-0.238 1.344-0.438 2.469-0.438 2.5 0 0.044-0.887 0.056-2.544 0.050l-2.55-0.019-0.019-2.531c-0.006-1.394 0-2.569 0.019-2.606 0.019-0.063 0.675-0.081 3-0.081 2.919 0 2.969 0 2.969 0.125zM15.175 15.012l-0.019 2.394-1.563 0.019c-1.963 0.025-2.162 0-2.45-0.262-0.219-0.2-0.225-0.212-0.681-2.294-0.256-1.144-0.463-2.125-0.463-2.162 0-0.063 0.55-0.081 2.594-0.081h2.594l-0.012 2.388zM21.75 15.031v2.406h-5.688v-4.813h5.688v2.406zM27.563 12.662c0 0.019-0.169 0.975-0.375 2.131-0.275 1.538-0.413 2.144-0.5 2.269-0.231 0.319-0.375 0.344-2.281 0.344h-1.75l-0.019-2.394-0.012-2.387h2.469c1.356 0 2.469 0.019 2.469 0.037zM10.181 25.113c-2.181 0.569-2.912 3.294-1.313 4.887 1.119 1.119 2.894 1.144 4.044 0.050 0.619-0.581 0.9-1.238 0.9-2.087 0-1.163-0.625-2.175-1.644-2.65-0.688-0.325-1.281-0.381-1.988-0.2zM11.8 26.125c0.431 0.219 0.781 0.575 0.975 0.994 0.188 0.406 0.188 1.231 0 1.637-0.194 0.419-0.544 0.775-0.975 0.994-0.325 0.156-0.456 0.188-0.838 0.188-0.863 0-1.488-0.375-1.85-1.113-0.175-0.356-0.206-0.481-0.206-0.887s0.031-0.531 0.206-0.887c0.363-0.738 0.969-1.106 1.831-1.113 0.406 0 0.525 0.025 0.856 0.188z"></path>
<path d="M10.438 26.756c-0.206 0.081-0.55 0.419-0.669 0.65-0.131 0.244-0.131 0.819 0 1.069 0.144 0.275 0.469 0.575 0.719 0.656 0.119 0.038 0.369 0.056 0.55 0.044 1.15-0.094 1.544-1.6 0.594-2.269-0.206-0.144-0.338-0.188-0.65-0.2-0.213-0.012-0.456 0.012-0.544 0.050zM11.206 27.762l0.131 0.175-0.131 0.169c-0.156 0.212-0.294 0.244-0.488 0.119-0.206-0.137-0.213-0.431-0.012-0.569 0.188-0.131 0.35-0.1 0.5 0.106zM22.469 25.069c-0.831 0.169-1.65 0.806-2.025 1.563-1.144 2.35 1.106 4.913 3.569 4.063 1-0.344 1.744-1.238 1.925-2.319 0.225-1.337-0.619-2.744-1.919-3.194-0.438-0.15-1.125-0.2-1.55-0.113zM23.875 26.1c0.425 0.194 0.769 0.525 0.988 0.931 0.15 0.275 0.169 0.381 0.169 0.906s-0.019 0.631-0.169 0.906c-0.363 0.688-1.019 1.094-1.775 1.094-0.525 0-0.881-0.113-1.25-0.394s-0.631-0.694-0.75-1.181c-0.1-0.394-0.1-0.456 0-0.844 0.119-0.494 0.381-0.906 0.75-1.188 0.375-0.288 0.681-0.381 1.225-0.387 0.375-0.006 0.538 0.025 0.813 0.156z"></path>
<path d="M22.531 26.794c-0.512 0.269-0.744 0.675-0.706 1.244 0.019 0.325 0.056 0.438 0.212 0.631 0.494 0.613 1.344 0.694 1.894 0.188 0.494-0.45 0.494-1.387 0-1.837-0.35-0.319-1.019-0.431-1.4-0.225zM23.313 27.688c0.069 0.069 0.125 0.181 0.125 0.25 0 0.163-0.212 0.375-0.375 0.375-0.069 0-0.181-0.056-0.25-0.125s-0.125-0.181-0.125-0.25 0.056-0.181 0.125-0.25 0.181-0.125 0.25-0.125 0.181 0.056 0.25 0.125z"></path>
</symbol>
</defs>
</svg>
