<svg version="1.1" xmlns="http://www.w3.org/2000/svg" width="34" height="32" viewBox="0 0 34 32">
<path fill="#6c5fbc" d="M7.921 3.705h21.081c2.865 0 5.187 2.322 5.187 5.187v17.412c0 2.865-2.322 5.187-5.187 5.187h-21.081c-2.865 0-5.187-2.322-5.187-5.187v-17.412c0-2.865 2.322-5.187 5.187-5.187z"></path>
<path fill="#dbd9ee" stroke="#6c5fbc" stroke-linejoin="miter" stroke-linecap="butt" stroke-miterlimit="4" stroke-width="1.4995" d="M5.187 0.75h21.081c2.45 0 4.437 1.986 4.437 4.437v17.412c0 2.45-1.986 4.437-4.437 4.437h-21.081c-2.45 0-4.437-1.986-4.437-4.437v-17.412c0-2.45 1.986-4.437 4.437-4.437z"></path>
<path fill="none" stroke="#6c5fbc" stroke-linejoin="round" stroke-linecap="round" stroke-miterlimit="4" stroke-width="1.5509" d="M24.278 8.969l-17.043-0.076M24.268 12.381l-3.791-0.017c-1.567-0.007-2.835-1.541-2.83-3.425s1.284-3.407 2.851-3.4l3.791 0.017M12.92 19.886l-4.952-0.055c-0.406-0.002-0.746-0.402-0.754-0.889l-0.033-1.286c-0.007-0.509 0.335-0.94 0.759-0.938l4.897 0.054 0.083 3.114zM20.698 21.738l-6.999-0.086c-0.406-0.002-0.746-0.402-0.754-0.89l-0.089-4 11.371 0.139 0.007 0.51c0.057 2.416-1.535 4.359-3.536 4.327z"></path>
</svg>
