<svg aria-hidden="true" style="position: absolute; width: 0; height: 0; overflow: hidden;" version="1.1" xmlns="http://www.w3.org/2000/svg" xmlns:xlink="http://www.w3.org/1999/xlink">
<defs>
<symbol id="icon-book" viewBox="0 0 26 32">
<path d="M20.521 0.593c-2.321-0.377-4.995-0.593-7.721-0.593s-5.4 0.216-8.008 0.631l0.288-0.038c-1.865 0.288-3.349 1.611-3.723 3.326-0.863 3.781-1.358 8.124-1.358 12.582 0 3.979 0.394 7.866 1.145 11.624l-0.063-0.376 0.625 3.209c0.192 0.99 1.5 1.387 2.289 0.691l7.52-6.601c0.344-0.295 0.794-0.474 1.286-0.474s0.943 0.179 1.289 0.476l-0.003-0.002 7.52 6.601c0.789 0.693 2.097 0.299 2.289-0.691l0.623-3.213c0.688-3.38 1.081-7.265 1.081-11.241 0-4.459-0.495-8.803-1.433-12.98l0.074 0.394c-0.373-1.715-1.856-3.038-3.721-3.328z"></path>
</symbol>
<symbol id="icon-star" viewBox="0 0 34 32">
<path d="M21.982 31.413c3.097 1.696 5.822-0.361 5.23-3.957l-1.065-6.459 4.507-4.571c2.507-2.546 1.472-5.879-1.998-6.405l-6.229-0.942-2.77-5.847c-1.554-3.275-4.923-3.31-6.48-0.030l-2.786 5.877-6.229 0.942c-3.463 0.526-4.505 3.856-1.998 6.402l4.51 4.574-1.063 6.459c-0.594 3.591 2.126 5.655 5.23 3.954l5.57-3.045 5.573 3.049z"></path>
</symbol>
<symbol id="icon-arrow-right" viewBox="0 0 32 32">
<path d="M19.414 27.414l10-10c0.781-0.781 0.781-2.047 0-2.828l-10-10c-0.781-0.781-2.047-0.781-2.828 0s-0.781 2.047 0 2.828l6.586 6.586h-19.172c-1.105 0-2 0.895-2 2s0.895 2 2 2h19.172l-6.586 6.586c-0.39 0.39-0.586 0.902-0.586 1.414s0.195 1.024 0.586 1.414c0.781 0.781 2.047 0.781 2.828 0z"></path>
</symbol>
<symbol id="icon-heart" viewBox="0 0 37 32">
<path d="M0.994 11.028c0-5.452 4.785-9.649 10.402-9.649 2.895 0 5.44 1.356 7.271 3.114 1.826-1.76 4.372-3.116 7.269-3.116 5.617 0 10.402 4.199 10.402 9.652 0 3.737-1.593 7.023-3.801 9.799-2.203 2.774-5.086 5.125-7.847 7.040-1.054 0.729-2.117 1.403-3.094 1.898-0.918 0.468-1.969 0.896-2.929 0.896s-2.014-0.428-2.929-0.896c-0.977-0.497-2.043-1.169-3.097-1.9-2.759-1.913-5.642-4.263-7.847-7.038-2.206-2.777-3.801-6.063-3.801-9.797zM11.397 4.406c-4.199 0-7.372 3.087-7.372 6.622 0 2.836 1.204 5.474 3.143 7.914 1.945 2.447 4.559 4.603 7.2 6.434 0.999 0.689 1.94 1.28 2.745 1.691 0.866 0.441 1.366 0.564 1.556 0.564 0.187 0 0.689-0.123 1.553-0.566 0.805-0.409 1.748-0.997 2.747-1.689 2.641-1.831 5.255-3.988 7.198-6.434 1.94-2.437 3.143-5.078 3.143-7.914 0-3.535-3.173-6.622-7.372-6.622-2.412 0-4.662 1.44-6.070 3.269-0.279 0.361-0.713 0.591-1.2 0.591s-0.921-0.23-1.197-0.588l-0.003-0.003c-1.406-1.829-3.658-3.271-6.070-3.271z"></path>
</symbol>
<symbol id="icon-plus" viewBox="0 0 32 32">
<path d="M31 12h-11v-11c0-0.552-0.448-1-1-1h-6c-0.552 0-1 0.448-1 1v11h-11c-0.552 0-1 0.448-1 1v6c0 0.552 0.448 1 1 1h11v11c0 0.552 0.448 1 1 1h6c0.552 0 1-0.448 1-1v-11h11c0.552 0 1-0.448 1-1v-6c0-0.552-0.448-1-1-1z"></path>
</symbol>
</defs>
</svg>

