<svg aria-hidden="true" style="position: absolute; width: 0; height: 0; overflow: hidden;" version="1.1" xmlns="http://www.w3.org/2000/svg" xmlns:xlink="http://www.w3.org/1999/xlink">
<defs>
<symbol id="icon-Book-Mark-2" viewBox="0 0 23 32">
<path d="M17.487 1.525c-1.976-0.347-4.251-0.546-6.573-0.546s-4.597 0.199-6.81 0.58l0.237-0.034c-1.594 0.274-2.842 1.487-3.166 3.039l-0.004 0.025c-0.735 3.486-1.156 7.491-1.156 11.594 0 3.661 0.335 7.244 0.976 10.719l-0.055-0.361 0.531 2.959c0.101 0.549 0.576 0.959 1.147 0.959 0.311 0 0.593-0.122 0.802-0.32l-0.001 0 6.404-6.086c0.285-0.271 0.671-0.438 1.096-0.438s0.812 0.167 1.097 0.438l-0.001-0.001 6.404 6.084c0.208 0.197 0.49 0.318 0.8 0.318 0.57 0 1.045-0.41 1.145-0.951l0.001-0.007 0.531-2.957c0.587-3.116 0.922-6.701 0.922-10.364 0-4.102-0.421-8.106-1.221-11.97l0.066 0.38c-0.328-1.577-1.577-2.79-3.149-3.059l-0.023-0.003z"></path>
</symbol>
<symbol id="icon-Edit-Color-2" viewBox="0 0 34 32">
<path d="M21.982 31.413c3.097 1.696 5.822-0.361 5.23-3.957l-1.065-6.459 4.507-4.571c2.507-2.546 1.472-5.879-1.998-6.405l-6.229-0.942-2.77-5.847c-1.554-3.275-4.923-3.31-6.48-0.030l-2.786 5.877-6.229 0.942c-3.463 0.526-4.505 3.856-1.998 6.402l4.51 4.574-1.063 6.459c-0.594 3.591 2.126 5.655 5.23 3.954l5.57-3.045 5.573 3.049z"></path>
</symbol>
<symbol id="icon-Group-427320334-2" viewBox="0 0 32 32">
<path stroke-linejoin="round" stroke-linecap="round" stroke-miterlimit="4" stroke-width="3.8029" d="M3.368 16.677h26.617M16.677 3.368l13.309 13.309-13.309 13.309"></path>
</symbol>
</defs>
</svg>
